# Blender v3.2.1 OBJ File: 'CeilingFan.blend'
# www.blender.org
mtllib CeilingFan.mtl
o pCylinder3_Mesh
v 0.715456 3.205669 0.191706
v 0.641461 3.205669 0.370347
v 0.523751 3.205669 0.523750
v 0.370348 3.205669 0.641460
v 0.191707 3.205669 0.715456
v 0.000001 3.205669 0.740694
v -0.191704 3.205669 0.715456
v -0.370345 3.205669 0.641460
v -0.523748 3.205669 0.523750
v -0.641458 3.205669 0.370348
v -0.715454 3.205669 0.191706
v -0.740692 3.205669 0.000001
v -0.715454 3.205669 -0.191705
v -0.641458 3.205669 -0.370346
v -0.523748 3.205669 -0.523749
v -0.370346 3.205669 -0.641459
v -0.191704 3.205669 -0.715455
v 0.000001 3.205670 -0.740693
v 0.191707 3.205669 -0.715455
v 0.370348 3.205669 -0.641459
v 0.523751 3.205669 -0.523749
v 0.641461 3.205669 -0.370346
v 0.715457 3.205669 -0.191705
v 0.740695 3.205669 0.000001
v 0.000001 3.205669 0.000001
v 0.636275 3.388520 0.170490
v 0.570468 3.388520 0.329360
v 0.465786 3.388520 0.465785
v 0.329361 3.388520 0.570468
v 0.170490 3.388520 0.636274
v 0.000002 3.388520 0.658719
v -0.170487 3.388520 0.636274
v -0.329358 3.388520 0.570468
v -0.465783 3.388520 0.465785
v -0.570466 3.388520 0.329360
v -0.636272 3.388520 0.170490
v -0.658717 3.388520 0.000001
v -0.636272 3.388520 -0.170488
v -0.570466 3.388520 -0.329358
v -0.465783 3.388520 -0.465784
v -0.329358 3.388520 -0.570466
v -0.170488 3.388520 -0.636273
v 0.000001 3.388520 -0.658718
v 0.170490 3.388520 -0.636273
v 0.329361 3.388520 -0.570466
v 0.465786 3.388520 -0.465784
v 0.570469 3.388520 -0.329359
v 0.636275 3.388520 -0.170488
v 0.658720 3.388520 0.000001
v 0.493176 3.528739 0.132146
v 0.442170 3.528739 0.255287
v 0.361030 3.528739 0.361029
v 0.255287 3.528739 0.442169
v 0.132147 3.528739 0.493175
v 0.000002 3.528739 0.510573
v -0.132144 3.528739 0.493175
v -0.255284 3.528739 0.442169
v -0.361027 3.528739 0.361030
v -0.442167 3.528739 0.255287
v -0.493173 3.528739 0.132146
v -0.510570 3.528739 0.000001
v -0.493173 3.528739 -0.132145
v -0.442167 3.528739 -0.255285
v -0.361027 3.528739 -0.361028
v -0.255285 3.528739 -0.442168
v -0.132144 3.528739 -0.493174
v 0.000001 3.528739 -0.510571
v 0.132147 3.528739 -0.493174
v 0.255287 3.528739 -0.442168
v 0.361030 3.528739 -0.361028
v 0.442170 3.528739 -0.255285
v 0.493176 3.528739 -0.132145
v 0.510574 3.528739 0.000001
v 0.693498 3.326579 0.185823
v 0.717963 3.326579 0.000001
v 0.693499 3.326579 -0.185821
v 0.621774 3.326579 -0.358980
v 0.507677 3.326579 -0.507675
v 0.358982 3.326579 -0.621772
v 0.185823 3.326579 -0.693497
v 0.000001 3.326579 -0.717960
v -0.185821 3.326579 -0.693496
v -0.358979 3.326579 -0.621772
v -0.507674 3.326579 -0.507674
v -0.621771 3.326579 -0.358980
v -0.693496 3.326579 -0.185821
v -0.717960 3.326579 0.000001
v -0.693496 3.326579 0.185823
v -0.621771 3.326579 0.358981
v -0.507674 3.326579 0.507676
v -0.358979 3.326579 0.621773
v -0.185820 3.326579 0.693498
v 0.000002 3.326579 0.717961
v 0.185823 3.326579 0.693497
v 0.358982 3.326579 0.621773
v 0.507676 3.326579 0.507676
v 0.621774 3.326579 0.358981
v 0.430596 3.565353 0.115378
v 0.386062 3.565353 0.222893
v 0.000001 3.565353 0.000001
v 0.315218 3.565353 0.315217
v 0.222893 3.565353 0.386061
v 0.115379 3.565353 0.430595
v 0.000002 3.565353 0.445784
v -0.115376 3.565353 0.430595
v -0.222890 3.565353 0.386061
v -0.315215 3.565353 0.315218
v -0.386059 3.565353 0.222893
v -0.430593 3.565353 0.115378
v -0.445782 3.565353 0.000001
v -0.430593 3.565353 -0.115377
v -0.386059 3.565353 -0.222891
v -0.315215 3.565353 -0.315216
v -0.222891 3.565353 -0.386060
v -0.115376 3.565353 -0.430594
v 0.000001 3.565353 -0.445783
v 0.115379 3.565353 -0.430594
v 0.222893 3.565353 -0.386060
v 0.315218 3.565353 -0.315216
v 0.386062 3.565353 -0.222891
v 0.430596 3.565353 -0.115377
v 0.445785 3.565353 0.000001
v 0.456430 3.526981 0.263520
v 0.509081 3.526981 0.136408
v 0.372674 3.526981 0.372673
v 0.263521 3.526981 0.456429
v 0.136409 3.526981 0.509081
v 0.000002 3.526981 0.527039
v -0.136406 3.526981 0.509081
v -0.263518 3.526981 0.456429
v -0.372671 3.526981 0.372673
v -0.456427 3.526981 0.263520
v -0.509079 3.526981 0.136408
v -0.527037 3.526981 0.000001
v -0.509079 3.526981 -0.136407
v -0.456427 3.526981 -0.263518
v -0.372671 3.526981 -0.372672
v -0.263518 3.526981 -0.456428
v -0.136406 3.526981 -0.509079
v 0.000001 3.526981 -0.527038
v 0.136409 3.526981 -0.509079
v 0.263521 3.526981 -0.456428
v 0.372674 3.526981 -0.372672
v 0.456430 3.526981 -0.263519
v 0.509082 3.526981 -0.136407
v 0.527040 3.526981 0.000001
vt 0.233644 0.625640
vt 0.226131 0.597579
vt 0.238222 0.592535
vt 0.246628 0.623897
vt 0.211612 0.572418
vt 0.221985 0.564417
vt 0.191076 0.551873
vt 0.199025 0.541460
vt 0.165922 0.537343
vt 0.170905 0.525227
vt 0.137865 0.529818
vt 0.139542 0.516825
vt 0.108815 0.529811
vt 0.107072 0.516827
vt 0.080754 0.537323
vt 0.075710 0.525232
vt 0.055593 0.551842
vt 0.047591 0.541469
vt 0.035047 0.572379
vt 0.024634 0.564430
vt 0.020517 0.597533
vt 0.008401 0.592551
vt 0.012993 0.625591
vt 0.000000 0.623913
vt 0.012986 0.654640
vt 0.000002 0.656382
vt 0.020498 0.682701
vt 0.008407 0.687745
vt 0.035017 0.707862
vt 0.024644 0.715863
vt 0.055553 0.728407
vt 0.047605 0.738821
vt 0.080708 0.742938
vt 0.075725 0.755054
vt 0.108766 0.750462
vt 0.107089 0.763455
vt 0.137815 0.750469
vt 0.139558 0.763453
vt 0.165876 0.742956
vt 0.170919 0.755047
vt 0.191036 0.728438
vt 0.199037 0.738811
vt 0.211582 0.707902
vt 0.221995 0.715851
vt 0.226113 0.682748
vt 0.238229 0.687731
vt 0.233637 0.654690
vt 0.246630 0.656367
vt 0.829697 0.507972
vt 0.829696 0.490175
vt 0.897286 0.499071
vt 0.834304 0.525162
vt 0.843203 0.540574
vt 0.855787 0.553157
vt 0.871200 0.562055
vt 0.888390 0.566660
vt 0.906187 0.566660
vt 0.923377 0.562053
vt 0.938789 0.553154
vt 0.951373 0.540569
vt 0.960270 0.525156
vt 0.964876 0.507966
vt 0.964875 0.490169
vt 0.960268 0.472979
vt 0.951369 0.457567
vt 0.938784 0.444984
vt 0.923371 0.436086
vt 0.906181 0.431481
vt 0.888384 0.431482
vt 0.871194 0.436088
vt 0.855782 0.444988
vt 0.843199 0.457572
vt 0.834301 0.472985
vt 0.341971 0.890480
vt 0.327181 0.916086
vt 0.237329 0.847114
vt 0.306268 0.936991
vt 0.280657 0.951772
vt 0.252093 0.959420
vt 0.222523 0.959414
vt 0.193962 0.951756
vt 0.168356 0.936966
vt 0.147451 0.916053
vt 0.132671 0.890442
vt 0.125023 0.861878
vt 0.125028 0.832308
vt 0.132687 0.803747
vt 0.147476 0.778141
vt 0.168389 0.757236
vt 0.194000 0.742456
vt 0.222564 0.734807
vt 0.252134 0.734813
vt 0.280695 0.742471
vt 0.306301 0.757261
vt 0.327206 0.778174
vt 0.341987 0.803785
vt 0.349635 0.832349
vt 0.349629 0.861919
vt 0.203564 0.629690
vt 0.198124 0.609276
vt 0.187587 0.590966
vt 0.172670 0.576007
vt 0.154389 0.565418
vt 0.133991 0.559921
vt 0.112865 0.559891
vt 0.092451 0.565330
vt 0.074141 0.575867
vt 0.059181 0.590785
vt 0.048593 0.609066
vt 0.043097 0.629464
vt 0.043067 0.650590
vt 0.048505 0.671004
vt 0.059042 0.689314
vt 0.073960 0.704274
vt 0.092240 0.714862
vt 0.112639 0.720359
vt 0.133765 0.720388
vt 0.154178 0.714949
vt 0.172489 0.704412
vt 0.187448 0.689495
vt 0.198037 0.671215
vt 0.203534 0.650816
vt 0.188150 0.631744
vt 0.183768 0.615250
vt 0.195934 0.610169
vt 0.201217 0.629986
vt 0.175266 0.600452
vt 0.185702 0.592395
vt 0.163223 0.588358
vt 0.171219 0.577875
vt 0.148461 0.579793
vt 0.153472 0.567598
vt 0.131985 0.575341
vt 0.133669 0.562264
vt 0.114919 0.575305
vt 0.113160 0.562238
vt 0.098424 0.579687
vt 0.093344 0.567521
vt 0.083626 0.588189
vt 0.075570 0.577752
vt 0.071533 0.600231
vt 0.061050 0.592235
vt 0.062968 0.614994
vt 0.050773 0.609983
vt 0.058516 0.631470
vt 0.045440 0.629786
vt 0.058480 0.648536
vt 0.045413 0.650294
vt 0.062862 0.665031
vt 0.050696 0.670111
vt 0.071364 0.679829
vt 0.060927 0.687885
vt 0.083406 0.691922
vt 0.075410 0.702405
vt 0.098168 0.700487
vt 0.093158 0.712682
vt 0.114644 0.704939
vt 0.112961 0.718016
vt 0.131711 0.704975
vt 0.133469 0.718042
vt 0.148205 0.700592
vt 0.153286 0.712759
vt 0.163004 0.692090
vt 0.171060 0.702528
vt 0.175097 0.680048
vt 0.185580 0.688045
vt 0.183662 0.665286
vt 0.195857 0.670297
vt 0.188114 0.648811
vt 0.201191 0.650494
vt 0.331787 0.423227
vt 0.331822 0.394785
vt 0.350320 0.392289
vt 0.350299 0.425613
vt 0.324391 0.450691
vt 0.341656 0.457756
vt 0.310159 0.475315
vt 0.325035 0.486575
vt 0.290039 0.495412
vt 0.301489 0.510151
vt 0.265396 0.509618
vt 0.272625 0.526826
vt 0.237909 0.516960
vt 0.240429 0.535450
vt 0.209459 0.516932
vt 0.207103 0.535446
vt 0.181992 0.509539
vt 0.174905 0.526807
vt 0.157378 0.495289
vt 0.146056 0.510127
vt 0.137292 0.475152
vt 0.122540 0.486571
vt 0.123083 0.450514
vt 0.105894 0.457767
vt 0.115738 0.423041
vt 0.097249 0.425588
vt 0.115757 0.394597
vt 0.097240 0.392253
vt 0.123142 0.367122
vt 0.105870 0.360059
vt 0.137392 0.342497
vt 0.122536 0.331200
vt 0.157527 0.322406
vt 0.146116 0.307635
vt 0.182175 0.308215
vt 0.174986 0.290991
vt 0.209658 0.300888
vt 0.207144 0.282404
vt 0.238099 0.300902
vt 0.240412 0.282389
vt 0.265564 0.308278
vt 0.272603 0.290992
vt 0.290188 0.322517
vt 0.301476 0.307652
vt 0.310290 0.342649
vt 0.325042 0.331223
vt 0.324490 0.367302
vt 0.341701 0.360085
vn 0.6764 0.7139 0.1812
vn 0.6064 0.7139 0.3501
vn 0.7967 0.3920 0.4600
vn 0.8886 0.3920 0.2381
vn 0.4951 0.7139 0.4951
vn 0.6505 0.3920 0.6505
vn 0.3501 0.7139 0.6064
vn 0.4600 0.3920 0.7967
vn 0.1812 0.7139 0.6764
vn 0.2381 0.3920 0.8886
vn -0.0000 0.7139 0.7002
vn -0.0000 0.3920 0.9200
vn -0.1812 0.7139 0.6764
vn -0.2381 0.3920 0.8886
vn -0.3501 0.7139 0.6064
vn -0.4600 0.3920 0.7967
vn -0.4951 0.7139 0.4951
vn -0.6505 0.3920 0.6505
vn -0.6064 0.7139 0.3501
vn -0.7967 0.3920 0.4600
vn -0.6764 0.7139 0.1812
vn -0.8886 0.3920 0.2381
vn -0.7002 0.7139 -0.0000
vn -0.9200 0.3920 -0.0000
vn -0.6764 0.7139 -0.1812
vn -0.8886 0.3920 -0.2381
vn -0.6064 0.7139 -0.3501
vn -0.7967 0.3920 -0.4600
vn -0.4951 0.7139 -0.4951
vn -0.6505 0.3920 -0.6505
vn -0.3501 0.7139 -0.6064
vn -0.4600 0.3920 -0.7967
vn -0.1812 0.7139 -0.6764
vn -0.2381 0.3920 -0.8886
vn 0.0000 0.7139 -0.7002
vn 0.0000 0.3920 -0.9200
vn 0.1812 0.7139 -0.6764
vn 0.2381 0.3920 -0.8886
vn 0.3501 0.7139 -0.6064
vn 0.4600 0.3920 -0.7967
vn 0.4951 0.7139 -0.4951
vn 0.6505 0.3920 -0.6505
vn 0.6064 0.7139 -0.3501
vn 0.7967 0.3920 -0.4600
vn 0.6764 0.7139 -0.1812
vn 0.8886 0.3920 -0.2381
vn 0.7002 0.7139 0.0000
vn 0.9200 0.3920 0.0000
vn 0.0000 1.0000 0.0000
vn 0.0000 -1.0000 0.0000
vn 0.6640 0.7263 0.1779
vn 0.5953 0.7263 0.3437
vn 0.4861 0.7263 0.4861
vn 0.3437 0.7263 0.5953
vn 0.1779 0.7263 0.6640
vn 0.0000 0.7263 0.6874
vn -0.1779 0.7263 0.6640
vn -0.3437 0.7263 0.5953
vn -0.4861 0.7263 0.4861
vn -0.5953 0.7263 0.3437
vn -0.6640 0.7263 0.1779
vn -0.6874 0.7263 -0.0000
vn -0.6640 0.7263 -0.1779
vn -0.5953 0.7263 -0.3437
vn -0.4861 0.7263 -0.4861
vn -0.3437 0.7263 -0.5953
vn -0.1779 0.7263 -0.6640
vn -0.0000 0.7263 -0.6874
vn 0.1779 0.7263 -0.6640
vn 0.3437 0.7263 -0.5953
vn 0.4861 0.7263 -0.4861
vn 0.5953 0.7263 -0.3437
vn 0.6640 0.7263 -0.1779
vn 0.6874 0.7263 0.0000
vn 0.4125 0.9042 0.1105
vn 0.3698 0.9042 0.2135
vn 0.3020 0.9042 0.3019
vn 0.2135 0.9042 0.3698
vn 0.1105 0.9042 0.4125
vn -0.0000 0.9042 0.4270
vn -0.1105 0.9042 0.4125
vn -0.2135 0.9042 0.3698
vn -0.3020 0.9042 0.3020
vn -0.3698 0.9042 0.2135
vn -0.4125 0.9042 0.1105
vn -0.4270 0.9042 -0.0000
vn -0.4125 0.9042 -0.1105
vn -0.3698 0.9042 -0.2135
vn -0.3020 0.9042 -0.3019
vn -0.2135 0.9042 -0.3698
vn -0.1105 0.9042 -0.4125
vn 0.0000 0.9042 -0.4270
vn 0.1105 0.9042 -0.4125
vn 0.2135 0.9042 -0.3698
vn 0.3020 0.9042 -0.3020
vn 0.3698 0.9042 -0.2135
vn 0.4125 0.9042 -0.1105
vn 0.4270 0.9042 0.0000
vn 0.9493 0.1848 0.2544
vn 0.9828 0.1848 0.0000
vn 0.9493 0.1848 -0.2544
vn 0.8511 0.1848 -0.4914
vn 0.6949 0.1848 -0.6949
vn 0.4914 0.1848 -0.8511
vn 0.2544 0.1848 -0.9493
vn -0.0000 0.1848 -0.9828
vn -0.2544 0.1848 -0.9493
vn -0.4914 0.1848 -0.8511
vn -0.6949 0.1848 -0.6949
vn -0.8511 0.1848 -0.4914
vn -0.9493 0.1848 -0.2544
vn -0.9828 0.1848 0.0000
vn -0.9493 0.1848 0.2544
vn -0.8511 0.1848 0.4914
vn -0.6949 0.1848 0.6949
vn -0.4914 0.1848 0.8511
vn -0.2544 0.1848 0.9493
vn 0.0000 0.1848 0.9828
vn 0.2544 0.1848 0.9493
vn 0.4914 0.1848 0.8511
vn 0.6949 0.1848 0.6949
vn 0.8511 0.1848 0.4914
vn -0.0990 -0.9942 -0.0410
vn -0.0850 -0.9942 -0.0652
vn -0.0652 -0.9942 -0.0850
vn -0.0410 -0.9942 -0.0990
vn -0.0140 -0.9942 -0.1062
vn 0.0140 -0.9942 -0.1062
vn 0.0410 -0.9942 -0.0990
vn 0.0652 -0.9942 -0.0850
vn 0.0850 -0.9942 -0.0652
vn 0.0990 -0.9942 -0.0410
vn 0.1062 -0.9942 -0.0140
vn 0.1062 -0.9942 0.0140
vn 0.0990 -0.9942 0.0410
vn 0.0850 -0.9942 0.0652
vn 0.0652 -0.9942 0.0850
vn 0.0410 -0.9942 0.0990
vn 0.0140 -0.9942 0.1062
vn -0.0140 -0.9942 0.1062
vn -0.0410 -0.9942 0.0990
vn -0.0652 -0.9942 0.0850
vn -0.0850 -0.9942 0.0652
vn -0.0990 -0.9942 0.0410
vn -0.1062 -0.9942 0.0140
vn -0.1062 -0.9942 -0.0140
usemtl lambert1
s 1
f 26/1/1 27/2/2 97/3/3 74/4/4
f 27/2/2 28/5/5 96/6/6 97/3/3
f 28/5/5 29/7/7 95/8/8 96/6/6
f 29/7/7 30/9/9 94/10/10 95/8/8
f 30/9/9 31/11/11 93/12/12 94/10/10
f 31/11/11 32/13/13 92/14/14 93/12/12
f 32/13/13 33/15/15 91/16/16 92/14/14
f 33/15/15 34/17/17 90/18/18 91/16/16
f 34/17/17 35/19/19 89/20/20 90/18/18
f 35/19/19 36/21/21 88/22/22 89/20/20
f 36/21/21 37/23/23 87/24/24 88/22/22
f 37/23/23 38/25/25 86/26/26 87/24/24
f 38/25/25 39/27/27 85/28/28 86/26/26
f 39/27/27 40/29/29 84/30/30 85/28/28
f 40/29/29 41/31/31 83/32/32 84/30/30
f 41/31/31 42/33/33 82/34/34 83/32/32
f 42/33/33 43/35/35 81/36/36 82/34/34
f 43/35/35 44/37/37 80/38/38 81/36/36
f 44/37/37 45/39/39 79/40/40 80/38/38
f 45/39/39 46/41/41 78/42/42 79/40/40
f 46/41/41 47/43/43 77/44/44 78/42/42
f 47/43/43 48/45/45 76/46/46 77/44/44
f 48/45/45 49/47/47 75/48/48 76/46/46
f 49/47/47 26/1/1 74/4/4 75/48/48
f 99/49/49 98/50/49 100/51/49
f 101/52/49 99/49/49 100/51/49
f 102/53/49 101/52/49 100/51/49
f 103/54/49 102/53/49 100/51/49
f 104/55/49 103/54/49 100/51/49
f 105/56/49 104/55/49 100/51/49
f 106/57/49 105/56/49 100/51/49
f 107/58/49 106/57/49 100/51/49
f 108/59/49 107/58/49 100/51/49
f 109/60/49 108/59/49 100/51/49
f 110/61/49 109/60/49 100/51/49
f 111/62/49 110/61/49 100/51/49
f 112/63/49 111/62/49 100/51/49
f 113/64/49 112/63/49 100/51/49
f 114/65/49 113/64/49 100/51/49
f 115/66/49 114/65/49 100/51/49
f 116/67/49 115/66/49 100/51/49
f 117/68/49 116/67/49 100/51/49
f 118/69/49 117/68/49 100/51/49
f 119/70/49 118/69/49 100/51/49
f 120/71/49 119/70/49 100/51/49
f 121/72/49 120/71/49 100/51/49
f 122/73/49 121/72/49 100/51/49
f 98/50/49 122/73/49 100/51/49
f 1/74/50 2/75/50 25/76/50
f 2/75/50 3/77/50 25/76/50
f 3/77/50 4/78/50 25/76/50
f 4/78/50 5/79/50 25/76/50
f 5/79/50 6/80/50 25/76/50
f 6/80/50 7/81/50 25/76/50
f 7/81/50 8/82/50 25/76/50
f 8/82/50 9/83/50 25/76/50
f 9/83/50 10/84/50 25/76/50
f 10/84/50 11/85/50 25/76/50
f 11/85/50 12/86/50 25/76/50
f 12/86/50 13/87/50 25/76/50
f 13/87/50 14/88/50 25/76/50
f 14/88/50 15/89/50 25/76/50
f 15/89/50 16/90/50 25/76/50
f 16/90/50 17/91/50 25/76/50
f 17/91/50 18/92/50 25/76/50
f 18/92/50 19/93/50 25/76/50
f 19/93/50 20/94/50 25/76/50
f 20/94/50 21/95/50 25/76/50
f 21/95/50 22/96/50 25/76/50
f 22/96/50 23/97/50 25/76/50
f 23/97/50 24/98/50 25/76/50
f 24/98/50 1/74/50 25/76/50
f 50/99/51 51/100/52 27/2/2 26/1/1
f 51/100/52 52/101/53 28/5/5 27/2/2
f 52/101/53 53/102/54 29/7/7 28/5/5
f 53/102/54 54/103/55 30/9/9 29/7/7
f 54/103/55 55/104/56 31/11/11 30/9/9
f 55/104/56 56/105/57 32/13/13 31/11/11
f 56/105/57 57/106/58 33/15/15 32/13/13
f 57/106/58 58/107/59 34/17/17 33/15/15
f 58/107/59 59/108/60 35/19/19 34/17/17
f 59/108/60 60/109/61 36/21/21 35/19/19
f 60/109/61 61/110/62 37/23/23 36/21/21
f 61/110/62 62/111/63 38/25/25 37/23/23
f 62/111/63 63/112/64 39/27/27 38/25/25
f 63/112/64 64/113/65 40/29/29 39/27/27
f 64/113/65 65/114/66 41/31/31 40/29/29
f 65/114/66 66/115/67 42/33/33 41/31/31
f 66/115/67 67/116/68 43/35/35 42/33/33
f 67/116/68 68/117/69 44/37/37 43/35/35
f 68/117/69 69/118/70 45/39/39 44/37/37
f 69/118/70 70/119/71 46/41/41 45/39/39
f 70/119/71 71/120/72 47/43/43 46/41/41
f 71/120/72 72/121/73 48/45/45 47/43/43
f 72/121/73 73/122/74 49/47/47 48/45/45
f 73/122/74 50/99/51 26/1/1 49/47/47
f 98/123/75 99/124/76 123/125/76 124/126/75
f 99/124/76 101/127/77 125/128/77 123/125/76
f 101/127/77 102/129/78 126/130/78 125/128/77
f 102/129/78 103/131/79 127/132/79 126/130/78
f 103/131/79 104/133/80 128/134/80 127/132/79
f 104/133/80 105/135/81 129/136/81 128/134/80
f 105/135/81 106/137/82 130/138/82 129/136/81
f 106/137/82 107/139/83 131/140/83 130/138/82
f 107/139/83 108/141/84 132/142/84 131/140/83
f 108/141/84 109/143/85 133/144/85 132/142/84
f 109/143/85 110/145/86 134/146/86 133/144/85
f 110/145/86 111/147/87 135/148/87 134/146/86
f 111/147/87 112/149/88 136/150/88 135/148/87
f 112/149/88 113/151/89 137/152/89 136/150/88
f 113/151/89 114/153/90 138/154/90 137/152/89
f 114/153/90 115/155/91 139/156/91 138/154/90
f 115/155/91 116/157/92 140/158/92 139/156/91
f 116/157/92 117/159/93 141/160/93 140/158/92
f 117/159/93 118/161/94 142/162/94 141/160/93
f 118/161/94 119/163/95 143/164/95 142/162/94
f 119/163/95 120/165/96 144/166/96 143/164/95
f 120/165/96 121/167/97 145/168/97 144/166/96
f 121/167/97 122/169/98 146/170/98 145/168/97
f 122/169/98 98/123/75 124/126/75 146/170/98
f 75/171/48 74/172/4 1/173/99 24/174/100
f 76/175/46 75/171/48 24/174/100 23/176/101
f 77/177/44 76/175/46 23/176/101 22/178/102
f 78/179/42 77/177/44 22/178/102 21/180/103
f 79/181/40 78/179/42 21/180/103 20/182/104
f 80/183/38 79/181/40 20/182/104 19/184/105
f 81/185/36 80/183/38 19/184/105 18/186/106
f 82/187/34 81/185/36 18/186/106 17/188/107
f 83/189/32 82/187/34 17/188/107 16/190/108
f 84/191/30 83/189/32 16/190/108 15/192/109
f 85/193/28 84/191/30 15/192/109 14/194/110
f 86/195/26 85/193/28 14/194/110 13/196/111
f 87/197/24 86/195/26 13/196/111 12/198/112
f 88/199/22 87/197/24 12/198/112 11/200/113
f 89/201/20 88/199/22 11/200/113 10/202/114
f 90/203/18 89/201/20 10/202/114 9/204/115
f 91/205/16 90/203/18 9/204/115 8/206/116
f 92/207/14 91/205/16 8/206/116 7/208/117
f 93/209/12 92/207/14 7/208/117 6/210/118
f 94/211/10 93/209/12 6/210/118 5/212/119
f 95/213/8 94/211/10 5/212/119 4/214/120
f 96/215/6 95/213/8 4/214/120 3/216/121
f 97/217/3 96/215/6 3/216/121 2/218/122
f 74/172/4 97/217/3 2/218/122 1/173/99
f 51/100/123 50/99/123 124/126/123 123/125/123
f 52/101/124 51/100/124 123/125/124 125/128/124
f 53/102/125 52/101/125 125/128/125 126/130/125
f 54/103/126 53/102/126 126/130/126 127/132/126
f 55/104/127 54/103/127 127/132/127 128/134/127
f 56/105/128 55/104/128 128/134/128 129/136/128
f 57/106/129 56/105/129 129/136/129 130/138/129
f 58/107/130 57/106/130 130/138/130 131/140/130
f 59/108/131 58/107/131 131/140/131 132/142/131
f 60/109/132 59/108/132 132/142/132 133/144/132
f 61/110/133 60/109/133 133/144/133 134/146/133
f 62/111/134 61/110/134 134/146/134 135/148/134
f 63/112/135 62/111/135 135/148/135 136/150/135
f 64/113/136 63/112/136 136/150/136 137/152/136
f 65/114/137 64/113/137 137/152/137 138/154/137
f 66/115/138 65/114/138 138/154/138 139/156/138
f 67/116/139 66/115/139 139/156/139 140/158/139
f 68/117/140 67/116/140 140/158/140 141/160/140
f 69/118/141 68/117/141 141/160/141 142/162/141
f 70/119/142 69/118/142 142/162/142 143/164/142
f 71/120/143 70/119/143 143/164/143 144/166/143
f 72/121/144 71/120/144 144/166/144 145/168/144
f 73/122/145 72/121/145 145/168/145 146/170/145
f 50/99/146 73/122/146 146/170/146 124/126/146
o top_Mesh.001
v 0.554550 4.729214 -0.148590
v 0.497196 4.729214 -0.287055
v 0.405959 4.729214 -0.405957
v 0.287057 4.729214 -0.497194
v 0.148592 4.729214 -0.554548
v 0.000002 4.729214 -0.574110
v -0.148589 4.729214 -0.554548
v -0.287054 4.729214 -0.497194
v -0.405956 4.729214 -0.405957
v -0.497193 4.729214 -0.287055
v -0.554547 4.729214 -0.148590
v -0.574109 4.729214 0.000001
v -0.554547 4.729214 0.148592
v -0.497193 4.729214 0.287056
v -0.405956 4.729214 0.405958
v -0.287054 4.729214 0.497195
v -0.148589 4.729214 0.554549
v 0.000001 4.729214 0.574112
v 0.148592 4.729214 0.554549
v 0.287057 4.729214 0.497195
v 0.405959 4.729214 0.405959
v 0.497196 4.729214 0.287056
v 0.554550 4.729214 0.148592
v 0.574112 4.729214 0.000001
v 0.000001 4.729214 0.000001
v 0.493176 4.587486 -0.132145
v 0.442170 4.587486 -0.255285
v 0.361030 4.587486 -0.361028
v 0.255287 4.587486 -0.442167
v 0.132147 4.587486 -0.493174
v 0.000002 4.587486 -0.510571
v -0.132144 4.587486 -0.493174
v -0.255284 4.587486 -0.442168
v -0.361027 4.587486 -0.361028
v -0.442167 4.587486 -0.255285
v -0.493173 4.587486 -0.132145
v -0.510570 4.587486 0.000001
v -0.493173 4.587486 0.132146
v -0.442167 4.587486 0.255287
v -0.361027 4.587486 0.361030
v -0.255285 4.587486 0.442169
v -0.132144 4.587486 0.493175
v 0.000001 4.587486 0.510573
v 0.132147 4.587486 0.493175
v 0.255287 4.587486 0.442169
v 0.361030 4.587486 0.361030
v 0.442170 4.587486 0.255287
v 0.493176 4.587486 0.132146
v 0.510574 4.587486 0.000001
v 0.493176 4.426705 -0.132145
v 0.442170 4.426705 -0.255285
v 0.361030 4.426705 -0.361028
v 0.255287 4.426705 -0.442167
v 0.132147 4.426705 -0.493174
v 0.000002 4.426705 -0.510571
v -0.132144 4.426705 -0.493174
v -0.255284 4.426705 -0.442168
v -0.361027 4.426705 -0.361028
v -0.442167 4.426705 -0.255285
v -0.493173 4.426705 -0.132145
v -0.510570 4.426705 0.000001
v -0.493173 4.426705 0.132146
v -0.442167 4.426705 0.255287
v -0.361027 4.426705 0.361030
v -0.255285 4.426705 0.442169
v -0.132144 4.426705 0.493175
v 0.000001 4.426705 0.510573
v 0.132147 4.426705 0.493175
v 0.255287 4.426705 0.442169
v 0.361030 4.426705 0.361030
v 0.442170 4.426705 0.255287
v 0.493176 4.426705 0.132146
v 0.510574 4.426705 0.000001
v 0.537530 4.635497 -0.144030
v 0.556492 4.635497 0.000001
v 0.537530 4.635497 0.144031
v 0.481937 4.635497 0.278246
v 0.393500 4.635497 0.393499
v 0.278247 4.635497 0.481936
v 0.144032 4.635497 0.537529
v 0.000001 4.635497 0.556491
v -0.144029 4.635497 0.537529
v -0.278244 4.635497 0.481936
v -0.393497 4.635497 0.393499
v -0.481934 4.635497 0.278246
v -0.537527 4.635497 0.144031
v -0.556489 4.635497 0.000001
v -0.537527 4.635497 -0.144030
v -0.481934 4.635497 -0.278245
v -0.393497 4.635497 -0.393498
v -0.278244 4.635497 -0.481934
v -0.144029 4.635497 -0.537528
v 0.000002 4.635497 -0.556490
v 0.144032 4.635497 -0.537528
v 0.278247 4.635497 -0.481934
v 0.393500 4.635497 -0.393497
v 0.481936 4.635497 -0.278244
v 0.351336 4.359071 -0.094139
v 0.314999 4.359071 -0.181863
v 0.000001 4.359071 0.000001
v 0.257196 4.359071 -0.257194
v 0.181866 4.359071 -0.314997
v 0.094141 4.359071 -0.351334
v 0.000002 4.359071 -0.363728
v -0.094138 4.359071 -0.351334
v -0.181863 4.359071 -0.314997
v -0.257193 4.359071 -0.257194
v -0.314997 4.359071 -0.181864
v -0.351333 4.359071 -0.094139
v -0.363727 4.359071 0.000001
v -0.351333 4.359071 0.094140
v -0.314997 4.359071 0.181865
v -0.257193 4.359071 0.257196
v -0.181863 4.359071 0.314999
v -0.094138 4.359071 0.351335
v 0.000001 4.359071 0.363729
v 0.094141 4.359071 0.351335
v 0.181866 4.359071 0.314999
v 0.257196 4.359071 0.257196
v 0.315000 4.359071 0.181865
v 0.351336 4.359071 0.094141
v 0.363730 4.359071 0.000001
v 0.456430 4.428464 -0.263518
v 0.509081 4.428464 -0.136407
v 0.372674 4.428464 -0.372672
v 0.263521 4.428464 -0.456428
v 0.136409 4.428464 -0.509079
v 0.000002 4.428464 -0.527038
v -0.136406 4.428464 -0.509079
v -0.263518 4.428464 -0.456428
v -0.372671 4.428464 -0.372672
v -0.456427 4.428464 -0.263519
v -0.509079 4.428464 -0.136407
v -0.527037 4.428464 0.000001
v -0.509079 4.428464 0.136408
v -0.456427 4.428464 0.263520
v -0.372671 4.428464 0.372673
v -0.263518 4.428464 0.456429
v -0.136406 4.428464 0.509081
v 0.000001 4.428464 0.527039
v 0.136409 4.428464 0.509081
v 0.263521 4.428464 0.456429
v 0.372674 4.428464 0.372673
v 0.456430 4.428464 0.263520
v 0.509082 4.428464 0.136408
v 0.527040 4.428464 0.000001
vt 0.708805 0.612053
vt 0.683213 0.612009
vt 0.681927 0.602326
vt 0.710060 0.602362
vt 0.658463 0.618594
vt 0.654717 0.609574
vt 0.636258 0.631382
vt 0.630303 0.623639
vt 0.618138 0.649484
vt 0.610375 0.643555
vt 0.605317 0.671670
vt 0.596284 0.667958
vt 0.598696 0.696422
vt 0.589010 0.695175
vt 0.598717 0.722030
vt 0.589035 0.723326
vt 0.605340 0.746725
vt 0.596320 0.750483
vt 0.618098 0.768910
vt 0.610355 0.774865
vt 0.636176 0.787051
vt 0.630237 0.794806
vt 0.658353 0.799887
vt 0.654626 0.808916
vt 0.683090 0.806528
vt 0.681837 0.816216
vt 0.708714 0.806538
vt 0.710016 0.816217
vt 0.733460 0.799897
vt 0.737224 0.808909
vt 0.755627 0.787074
vt 0.761590 0.794811
vt 0.773702 0.768992
vt 0.781467 0.774924
vt 0.786536 0.746850
vt 0.795565 0.750578
vt 0.793207 0.722124
vt 0.802892 0.723389
vt 0.793235 0.696500
vt 0.802918 0.695213
vt 0.786618 0.671756
vt 0.795634 0.667997
vt 0.773814 0.649560
vt 0.781546 0.643593
vt 0.755690 0.631450
vt 0.761613 0.623685
vt 0.733502 0.618664
vt 0.737221 0.609632
vt 0.273797 0.526801
vt 0.287823 0.523040
vt 0.295092 0.578187
vt 0.261223 0.534063
vt 0.250957 0.544332
vt 0.243699 0.556909
vt 0.239943 0.570935
vt 0.239945 0.585456
vt 0.243705 0.599482
vt 0.250968 0.612056
vt 0.261237 0.622322
vt 0.273814 0.629580
vt 0.287840 0.633336
vt 0.302361 0.633334
vt 0.316386 0.629574
vt 0.328961 0.622311
vt 0.339227 0.612042
vt 0.346485 0.599465
vt 0.350241 0.585439
vt 0.350239 0.570918
vt 0.346478 0.556892
vt 0.339216 0.544318
vt 0.328947 0.534052
vt 0.316370 0.526794
vt 0.302343 0.523038
vt 0.257048 0.469057
vt 0.234910 0.474993
vt 0.223436 0.387949
vt 0.211991 0.474997
vt 0.189851 0.469068
vt 0.170000 0.457612
vt 0.153791 0.441407
vt 0.142328 0.421560
vt 0.136392 0.399423
vt 0.136388 0.376503
vt 0.142317 0.354363
vt 0.153773 0.334512
vt 0.169977 0.318303
vt 0.189825 0.306840
vt 0.211962 0.300904
vt 0.234882 0.300900
vt 0.257022 0.306829
vt 0.276873 0.318286
vt 0.293082 0.334490
vt 0.304545 0.354337
vt 0.310481 0.376474
vt 0.310485 0.399394
vt 0.304556 0.421534
vt 0.293099 0.441385
vt 0.276895 0.457594
vt 0.705951 0.634004
vt 0.686125 0.633942
vt 0.666957 0.639030
vt 0.649766 0.648908
vt 0.635730 0.662920
vt 0.625787 0.680069
vt 0.620640 0.699217
vt 0.620631 0.719053
vt 0.625776 0.738220
vt 0.635636 0.755421
vt 0.649627 0.769478
vt 0.666777 0.779426
vt 0.685929 0.784575
vt 0.705752 0.784612
vt 0.724909 0.779495
vt 0.742091 0.769585
vt 0.756118 0.755545
vt 0.766085 0.738406
vt 0.771263 0.719262
vt 0.771303 0.699435
vt 0.766187 0.680274
vt 0.756307 0.663089
vt 0.742297 0.649057
vt 0.725123 0.639132
vt 0.856500 0.356923
vt 0.860228 0.370895
vt 0.835262 0.381287
vt 0.829696 0.360499
vt 0.867444 0.383426
vt 0.846019 0.399925
vt 0.877658 0.393662
vt 0.861234 0.415145
vt 0.890173 0.400906
vt 0.879869 0.425907
vt 0.904137 0.404664
vt 0.900655 0.431480
vt 0.918598 0.404679
vt 0.922175 0.431483
vt 0.932569 0.400951
vt 0.942961 0.425916
vt 0.945100 0.393735
vt 0.961599 0.415160
vt 0.955337 0.383521
vt 0.976819 0.399946
vt 0.962580 0.371006
vt 0.987582 0.381310
vt 0.966338 0.357042
vt 0.993155 0.360525
vt 0.966354 0.342581
vt 0.993158 0.339005
vt 0.962626 0.328610
vt 0.987591 0.318217
vt 0.955409 0.316079
vt 0.976833 0.299579
vt 0.945195 0.305843
vt 0.961619 0.284361
vt 0.932680 0.298599
vt 0.942985 0.273598
vt 0.918716 0.294841
vt 0.922199 0.268025
vt 0.904256 0.294825
vt 0.900679 0.268021
vt 0.890284 0.298553
vt 0.879892 0.273588
vt 0.877753 0.305770
vt 0.861253 0.284345
vt 0.867517 0.315984
vt 0.846034 0.299560
vt 0.860274 0.328499
vt 0.835272 0.318195
vt 0.856516 0.342463
vt 0.829700 0.338980
vt 0.711893 0.587949
vt 0.742707 0.596182
vt 0.770385 0.612110
vt 0.793018 0.634687
vt 0.809026 0.662372
vt 0.817310 0.693258
vt 0.817300 0.725235
vt 0.809005 0.756091
vt 0.793032 0.783717
vt 0.770495 0.806287
vt 0.742862 0.822293
vt 0.711993 0.830606
vt 0.680013 0.830626
vt 0.649123 0.822358
vt 0.621435 0.806360
vt 0.598860 0.783749
vt 0.582922 0.756102
vt 0.574644 0.725299
vt 0.574599 0.693365
vt 0.582835 0.662476
vt 0.598808 0.634770
vt 0.621414 0.612153
vt 0.649112 0.596173
vt 0.679981 0.587929
vt 0.705650 0.636220
vt 0.686389 0.636179
vt 0.667800 0.641119
vt 0.651129 0.650705
vt 0.637506 0.664297
vt 0.627864 0.680946
vt 0.622873 0.699518
vt 0.622864 0.718756
vt 0.627846 0.737373
vt 0.637441 0.754074
vt 0.651014 0.767702
vt 0.667651 0.777347
vt 0.686234 0.782349
vt 0.705473 0.782374
vt 0.724052 0.777410
vt 0.740718 0.767799
vt 0.754349 0.754176
vt 0.764015 0.737516
vt 0.769032 0.718947
vt 0.769066 0.699717
vt 0.764106 0.681123
vt 0.754508 0.664449
vt 0.740920 0.650841
vt 0.724263 0.641213
vn 0.9398 -0.2309 -0.2518
vn 0.8426 -0.2309 -0.4865
vn 0.7967 -0.3920 -0.4600
vn 0.8886 -0.3920 -0.2381
vn 0.6880 -0.2309 -0.6880
vn 0.6505 -0.3920 -0.6505
vn 0.4865 -0.2309 -0.8426
vn 0.4600 -0.3920 -0.7967
vn 0.2518 -0.2309 -0.9398
vn 0.2381 -0.3920 -0.8886
vn 0.0000 -0.2309 -0.9730
vn -0.0000 -0.3920 -0.9200
vn -0.2518 -0.2309 -0.9398
vn -0.2381 -0.3920 -0.8886
vn -0.4865 -0.2309 -0.8426
vn -0.4600 -0.3920 -0.7967
vn -0.6880 -0.2309 -0.6880
vn -0.6505 -0.3920 -0.6505
vn -0.8426 -0.2309 -0.4865
vn -0.7967 -0.3920 -0.4600
vn -0.9398 -0.2309 -0.2518
vn -0.8886 -0.3920 -0.2381
vn -0.9730 -0.2309 -0.0000
vn -0.9200 -0.3920 0.0000
vn -0.9398 -0.2309 0.2518
vn -0.8886 -0.3920 0.2381
vn -0.8426 -0.2309 0.4865
vn -0.7967 -0.3920 0.4600
vn -0.6880 -0.2309 0.6880
vn -0.6505 -0.3920 0.6505
vn -0.4865 -0.2309 0.8426
vn -0.4600 -0.3920 0.7967
vn -0.2518 -0.2309 0.9398
vn -0.2381 -0.3920 0.8886
vn 0.0000 -0.2309 0.9730
vn 0.0000 -0.3920 0.9200
vn 0.2518 -0.2309 0.9398
vn 0.2381 -0.3920 0.8886
vn 0.4865 -0.2309 0.8426
vn 0.4600 -0.3920 0.7967
vn 0.6880 -0.2309 0.6880
vn 0.6505 -0.3920 0.6505
vn 0.8426 -0.2309 0.4865
vn 0.7967 -0.3920 0.4600
vn 0.9398 -0.2309 0.2518
vn 0.8886 -0.3920 0.2381
vn 0.9730 -0.2309 -0.0000
vn 0.9200 -0.3920 -0.0000
vn 0.0000 -1.0000 -0.0000
vn 0.0000 1.0000 -0.0000
vn 0.9659 0.0000 -0.2588
vn 0.8660 0.0000 -0.5000
vn 0.7071 0.0000 -0.7071
vn 0.5000 0.0000 -0.8660
vn 0.2588 0.0000 -0.9659
vn 0.0000 0.0000 -1.0000
vn -0.2588 0.0000 -0.9659
vn -0.5000 0.0000 -0.8660
vn -0.7071 0.0000 -0.7071
vn -0.8660 0.0000 -0.5000
vn -0.9659 0.0000 -0.2588
vn -1.0000 0.0000 -0.0000
vn -0.9659 0.0000 0.2588
vn -0.8660 -0.0000 0.5000
vn -0.7071 -0.0000 0.7071
vn -0.5000 -0.0000 0.8660
vn -0.2588 0.0000 0.9659
vn -0.0000 -0.0000 1.0000
vn 0.2588 -0.0000 0.9659
vn 0.5000 -0.0000 0.8660
vn 0.7071 -0.0000 0.7071
vn 0.8660 -0.0000 0.5000
vn 0.9659 -0.0000 0.2588
vn 1.0000 -0.0000 -0.0000
vn 0.3778 -0.9204 -0.1012
vn 0.3387 -0.9204 -0.1955
vn 0.2765 -0.9204 -0.2765
vn 0.1955 -0.9204 -0.3387
vn 0.1012 -0.9204 -0.3778
vn 0.0000 -0.9204 -0.3911
vn -0.1012 -0.9204 -0.3777
vn -0.1955 -0.9204 -0.3387
vn -0.2765 -0.9204 -0.2765
vn -0.3387 -0.9204 -0.1955
vn -0.3778 -0.9204 -0.1012
vn -0.3911 -0.9204 0.0000
vn -0.3778 -0.9204 0.1012
vn -0.3387 -0.9204 0.1955
vn -0.2765 -0.9204 0.2765
vn -0.1955 -0.9204 0.3387
vn -0.1012 -0.9204 0.3778
vn -0.0000 -0.9204 0.3911
vn 0.1012 -0.9204 0.3778
vn 0.1955 -0.9204 0.3387
vn 0.2765 -0.9204 0.2765
vn 0.3387 -0.9204 0.1955
vn 0.3778 -0.9204 0.1012
vn 0.3911 -0.9204 0.0000
vn 0.9493 -0.1848 -0.2544
vn 0.9828 -0.1848 -0.0000
vn 0.9493 -0.1848 0.2544
vn 0.8511 -0.1848 0.4914
vn 0.6949 -0.1848 0.6949
vn 0.4914 -0.1848 0.8511
vn 0.2544 -0.1848 0.9493
vn -0.0000 -0.1848 0.9828
vn -0.2544 -0.1848 0.9493
vn -0.4914 -0.1848 0.8511
vn -0.6949 -0.1848 0.6949
vn -0.8511 -0.1848 0.4914
vn -0.9493 -0.1848 0.2544
vn -0.9828 -0.1848 -0.0000
vn -0.9493 -0.1848 -0.2544
vn -0.8511 -0.1848 -0.4914
vn -0.6949 -0.1848 -0.6949
vn -0.4914 -0.1848 -0.8511
vn -0.2544 -0.1848 -0.9493
vn -0.0000 -0.1848 -0.9828
vn 0.2544 -0.1848 -0.9493
vn 0.4914 -0.1848 -0.8511
vn 0.6949 -0.1848 -0.6949
vn 0.8511 -0.1848 -0.4914
vn -0.0989 0.9942 0.0410
vn -0.0850 0.9942 0.0652
vn -0.0652 0.9942 0.0850
vn -0.0410 0.9942 0.0990
vn -0.0140 0.9943 0.1062
vn 0.0140 0.9943 0.1062
vn 0.0410 0.9942 0.0990
vn 0.0652 0.9942 0.0850
vn 0.0850 0.9942 0.0652
vn 0.0989 0.9942 0.0410
vn 0.1062 0.9942 0.0140
vn 0.1062 0.9942 -0.0140
vn 0.0989 0.9942 -0.0410
vn 0.0850 0.9942 -0.0652
vn 0.0652 0.9942 -0.0850
vn 0.0410 0.9942 -0.0990
vn 0.0140 0.9942 -0.1062
vn -0.0140 0.9942 -0.1062
vn -0.0410 0.9942 -0.0990
vn -0.0652 0.9942 -0.0850
vn -0.0850 0.9942 -0.0652
vn -0.0989 0.9942 -0.0410
vn -0.1062 0.9942 -0.0140
vn -0.1062 0.9942 0.0140
usemtl lambert1
s 1
f 172/219/147 173/220/148 243/221/149 220/222/150
f 173/220/148 174/223/151 242/224/152 243/221/149
f 174/223/151 175/225/153 241/226/154 242/224/152
f 175/225/153 176/227/155 240/228/156 241/226/154
f 176/227/155 177/229/157 239/230/158 240/228/156
f 177/229/157 178/231/159 238/232/160 239/230/158
f 178/231/159 179/233/161 237/234/162 238/232/160
f 179/233/161 180/235/163 236/236/164 237/234/162
f 180/235/163 181/237/165 235/238/166 236/236/164
f 181/237/165 182/239/167 234/240/168 235/238/166
f 182/239/167 183/241/169 233/242/170 234/240/168
f 183/241/169 184/243/171 232/244/172 233/242/170
f 184/243/171 185/245/173 231/246/174 232/244/172
f 185/245/173 186/247/175 230/248/176 231/246/174
f 186/247/175 187/249/177 229/250/178 230/248/176
f 187/249/177 188/251/179 228/252/180 229/250/178
f 188/251/179 189/253/181 227/254/182 228/252/180
f 189/253/181 190/255/183 226/256/184 227/254/182
f 190/255/183 191/257/185 225/258/186 226/256/184
f 191/257/185 192/259/187 224/260/188 225/258/186
f 192/259/187 193/261/189 223/262/190 224/260/188
f 193/261/189 194/263/191 222/264/192 223/262/190
f 194/263/191 195/265/193 221/266/194 222/264/192
f 195/265/193 172/219/147 220/222/150 221/266/194
f 245/267/195 244/268/195 246/269/195
f 247/270/195 245/267/195 246/269/195
f 248/271/195 247/270/195 246/269/195
f 249/272/195 248/271/195 246/269/195
f 250/273/195 249/272/195 246/269/195
f 251/274/195 250/273/195 246/269/195
f 252/275/195 251/274/195 246/269/195
f 253/276/195 252/275/195 246/269/195
f 254/277/195 253/276/195 246/269/195
f 255/278/195 254/277/195 246/269/195
f 256/279/195 255/278/195 246/269/195
f 257/280/195 256/279/195 246/269/195
f 258/281/195 257/280/195 246/269/195
f 259/282/195 258/281/195 246/269/195
f 260/283/195 259/282/195 246/269/195
f 261/284/195 260/283/195 246/269/195
f 262/285/195 261/284/195 246/269/195
f 263/286/195 262/285/195 246/269/195
f 264/287/195 263/286/195 246/269/195
f 265/288/195 264/287/195 246/269/195
f 266/289/195 265/288/195 246/269/195
f 267/290/195 266/289/195 246/269/195
f 268/291/195 267/290/195 246/269/195
f 244/268/195 268/291/195 246/269/195
f 147/292/196 148/293/196 171/294/196
f 148/293/196 149/295/196 171/294/196
f 149/295/196 150/296/196 171/294/196
f 150/296/196 151/297/196 171/294/196
f 151/297/196 152/298/196 171/294/196
f 152/298/196 153/299/196 171/294/196
f 153/299/196 154/300/196 171/294/196
f 154/300/196 155/301/196 171/294/196
f 155/301/196 156/302/196 171/294/196
f 156/302/196 157/303/196 171/294/196
f 157/303/196 158/304/196 171/294/196
f 158/304/196 159/305/196 171/294/196
f 159/305/196 160/306/196 171/294/196
f 160/306/196 161/307/196 171/294/196
f 161/307/196 162/308/196 171/294/196
f 162/308/196 163/309/196 171/294/196
f 163/309/196 164/310/196 171/294/196
f 164/310/196 165/311/196 171/294/196
f 165/311/196 166/312/196 171/294/196
f 166/312/196 167/313/196 171/294/196
f 167/313/196 168/314/196 171/294/196
f 168/314/196 169/315/196 171/294/196
f 169/315/196 170/316/196 171/294/196
f 170/316/196 147/292/196 171/294/196
f 196/317/197 197/318/198 173/220/148 172/219/147
f 197/318/198 198/319/199 174/223/151 173/220/148
f 198/319/199 199/320/200 175/225/153 174/223/151
f 199/320/200 200/321/201 176/227/155 175/225/153
f 200/321/201 201/322/202 177/229/157 176/227/155
f 201/322/202 202/323/203 178/231/159 177/229/157
f 202/323/203 203/324/204 179/233/161 178/231/159
f 203/324/204 204/325/205 180/235/163 179/233/161
f 204/325/205 205/326/206 181/237/165 180/235/163
f 205/326/206 206/327/207 182/239/167 181/237/165
f 206/327/207 207/328/208 183/241/169 182/239/167
f 207/328/208 208/329/209 184/243/171 183/241/169
f 208/329/209 209/330/210 185/245/173 184/243/171
f 209/330/210 210/331/211 186/247/175 185/245/173
f 210/331/211 211/332/212 187/249/177 186/247/175
f 211/332/212 212/333/213 188/251/179 187/249/177
f 212/333/213 213/334/214 189/253/181 188/251/179
f 213/334/214 214/335/215 190/255/183 189/253/181
f 214/335/215 215/336/216 191/257/185 190/255/183
f 215/336/216 216/337/217 192/259/187 191/257/185
f 216/337/217 217/338/218 193/261/189 192/259/187
f 217/338/218 218/339/219 194/263/191 193/261/189
f 218/339/219 219/340/220 195/265/193 194/263/191
f 219/340/220 196/317/197 172/219/147 195/265/193
f 244/341/221 245/342/222 269/343/222 270/344/221
f 245/342/222 247/345/223 271/346/223 269/343/222
f 247/345/223 248/347/224 272/348/224 271/346/223
f 248/347/224 249/349/225 273/350/225 272/348/224
f 249/349/225 250/351/226 274/352/226 273/350/225
f 250/351/226 251/353/227 275/354/227 274/352/226
f 251/353/227 252/355/228 276/356/228 275/354/227
f 252/355/228 253/357/229 277/358/229 276/356/228
f 253/357/229 254/359/230 278/360/230 277/358/229
f 254/359/230 255/361/231 279/362/231 278/360/230
f 255/361/231 256/363/232 280/364/232 279/362/231
f 256/363/232 257/365/233 281/366/233 280/364/232
f 257/365/233 258/367/234 282/368/234 281/366/233
f 258/367/234 259/369/235 283/370/235 282/368/234
f 259/369/235 260/371/236 284/372/236 283/370/235
f 260/371/236 261/373/237 285/374/237 284/372/236
f 261/373/237 262/375/238 286/376/238 285/374/237
f 262/375/238 263/377/239 287/378/239 286/376/238
f 263/377/239 264/379/240 288/380/240 287/378/239
f 264/379/240 265/381/241 289/382/241 288/380/240
f 265/381/241 266/383/242 290/384/242 289/382/241
f 266/383/242 267/385/243 291/386/243 290/384/242
f 267/385/243 268/387/244 292/388/244 291/386/243
f 268/387/244 244/341/221 270/344/221 292/388/244
f 221/266/194 220/222/150 147/389/245 170/390/246
f 222/264/192 221/266/194 170/390/246 169/391/247
f 223/262/190 222/264/192 169/391/247 168/392/248
f 224/260/188 223/262/190 168/392/248 167/393/249
f 225/258/186 224/260/188 167/393/249 166/394/250
f 226/256/184 225/258/186 166/394/250 165/395/251
f 227/254/182 226/256/184 165/395/251 164/396/252
f 228/252/180 227/254/182 164/396/252 163/397/253
f 229/250/178 228/252/180 163/397/253 162/398/254
f 230/248/176 229/250/178 162/398/254 161/399/255
f 231/246/174 230/248/176 161/399/255 160/400/256
f 232/244/172 231/246/174 160/400/256 159/401/257
f 233/242/170 232/244/172 159/401/257 158/402/258
f 234/240/168 233/242/170 158/402/258 157/403/259
f 235/238/166 234/240/168 157/403/259 156/404/260
f 236/236/164 235/238/166 156/404/260 155/405/261
f 237/234/162 236/236/164 155/405/261 154/406/262
f 238/232/160 237/234/162 154/406/262 153/407/263
f 239/230/158 238/232/160 153/407/263 152/408/264
f 240/228/156 239/230/158 152/408/264 151/409/265
f 241/226/154 240/228/156 151/409/265 150/410/266
f 242/224/152 241/226/154 150/410/266 149/411/267
f 243/221/149 242/224/152 149/411/267 148/412/268
f 220/222/150 243/221/149 148/412/268 147/389/245
f 197/318/269 196/317/269 270/413/269 269/414/269
f 198/319/270 197/318/270 269/414/270 271/415/270
f 199/320/271 198/319/271 271/415/271 272/416/271
f 200/321/272 199/320/272 272/416/272 273/417/272
f 201/322/273 200/321/273 273/417/273 274/418/273
f 202/323/274 201/322/274 274/418/274 275/419/274
f 203/324/275 202/323/275 275/419/275 276/420/275
f 204/325/276 203/324/276 276/420/276 277/421/276
f 205/326/277 204/325/277 277/421/277 278/422/277
f 206/327/278 205/326/278 278/422/278 279/423/278
f 207/328/279 206/327/279 279/423/279 280/424/279
f 208/329/280 207/328/280 280/424/280 281/425/280
f 209/330/281 208/329/281 281/425/281 282/426/281
f 210/331/282 209/330/282 282/426/282 283/427/282
f 211/332/283 210/331/283 283/427/283 284/428/283
f 212/333/284 211/332/284 284/428/284 285/429/284
f 213/334/285 212/333/285 285/429/285 286/430/285
f 214/335/286 213/334/286 286/430/286 287/431/286
f 215/336/287 214/335/287 287/431/287 288/432/287
f 216/337/288 215/336/288 288/432/288 289/433/288
f 217/338/289 216/337/289 289/433/289 290/434/289
f 218/339/290 217/338/290 290/434/290 291/435/290
f 219/340/291 218/339/291 291/435/291 292/436/291
f 196/317/292 219/340/292 292/436/292 270/413/292
o pCylinder2_Mesh.002
v 0.048298 3.524658 -0.012940
v 0.043303 3.524658 -0.024999
v 0.035357 3.524658 -0.035355
v 0.025001 3.524658 -0.043301
v 0.012942 3.524658 -0.048296
v 0.000001 3.524658 -0.049999
v -0.012940 3.524658 -0.048296
v -0.024999 3.524658 -0.043301
v -0.035354 3.524658 -0.035355
v -0.043300 3.524658 -0.024999
v -0.048295 3.524658 -0.012940
v -0.049999 3.524658 0.000001
v -0.048295 3.524658 0.012941
v -0.043300 3.524658 0.025000
v -0.035354 3.524658 0.035356
v -0.024999 3.524658 0.043302
v -0.012940 3.524658 0.048297
v 0.000001 3.524658 0.050000
v 0.012942 3.524658 0.048297
v 0.025001 3.524658 0.043302
v 0.035357 3.524658 0.035356
v 0.043303 3.524658 0.025001
v 0.048298 3.524658 0.012941
v 0.050001 3.524658 0.000001
v 0.048298 4.379232 -0.012940
v 0.043303 4.379232 -0.024999
v 0.035357 4.379232 -0.035355
v 0.025001 4.379232 -0.043301
v 0.012942 4.379232 -0.048296
v 0.000001 4.379232 -0.049999
v -0.012940 4.379232 -0.048296
v -0.024999 4.379232 -0.043301
v -0.035354 4.379232 -0.035355
v -0.043300 4.379232 -0.024999
v -0.048295 4.379232 -0.012940
v -0.049999 4.379232 0.000001
v -0.048295 4.379232 0.012942
v -0.043300 4.379232 0.025001
v -0.035354 4.379232 0.035356
v -0.024999 4.379232 0.043302
v -0.012940 4.379232 0.048297
v 0.000001 4.379232 0.050001
v 0.012942 4.379232 0.048297
v 0.025001 4.379232 0.043302
v 0.035357 4.379232 0.035356
v 0.043303 4.379232 0.025001
v 0.048298 4.379232 0.012942
v 0.050001 4.379232 0.000001
v 0.000001 3.524658 0.000001
v 0.000001 4.379232 0.000001
vt 0.097030 0.282406
vt 0.097030 0.285095
vt 0.000000 0.285095
vt 0.000000 0.282406
vt 0.097030 0.287783
vt 0.000000 0.287783
vt 0.097030 0.290472
vt 0.000000 0.290472
vt 0.097030 0.293160
vt 0.000000 0.293160
vt 0.097030 0.295849
vt 0.000000 0.295849
vt 0.097030 0.298537
vt 0.000000 0.298537
vt 0.097030 0.301226
vt 0.000000 0.301226
vt 0.097030 0.303914
vt 0.000000 0.303914
vt 0.097030 0.306603
vt 0.000000 0.306603
vt 0.097030 0.309291
vt 0.000000 0.309291
vt 0.097030 0.311980
vt 0.000000 0.311980
vt 0.097030 0.314668
vt 0.000000 0.314668
vt 0.097030 0.317357
vt 0.000000 0.317357
vt 0.097030 0.320046
vt 0.000000 0.320046
vt 0.097030 0.322734
vt 0.000000 0.322734
vt 0.097030 0.325423
vt 0.000000 0.325423
vt 0.097030 0.328111
vt 0.000000 0.328111
vt 0.097030 0.330800
vt 0.000000 0.330800
vt 0.097030 0.333488
vt 0.000000 0.333488
vt 0.097030 0.336177
vt 0.000000 0.336177
vt 0.097030 0.338865
vt 0.000000 0.338865
vt 0.097030 0.341554
vt 0.000000 0.341554
vt 0.097030 0.344242
vt 0.000000 0.344242
vt 0.097030 0.346931
vt 0.000000 0.346931
vt 0.566761 0.015165
vt 0.564765 0.015165
vt 0.566046 0.007701
vt 0.568689 0.014648
vt 0.570418 0.013650
vt 0.571829 0.012239
vt 0.572827 0.010510
vt 0.573344 0.008582
vt 0.573344 0.006586
vt 0.572827 0.004658
vt 0.571829 0.002929
vt 0.570418 0.001518
vt 0.568689 0.000520
vt 0.566761 0.000003
vt 0.564765 0.000003
vt 0.562837 0.000520
vt 0.561108 0.001518
vt 0.559697 0.002929
vt 0.558699 0.004658
vt 0.558182 0.006586
vt 0.558182 0.008582
vt 0.558699 0.010510
vt 0.559697 0.012239
vt 0.561108 0.013650
vt 0.562837 0.014648
vt 0.002926 0.013650
vt 0.001515 0.012239
vt 0.007864 0.007701
vt 0.000517 0.010510
vt 0.000000 0.008582
vt 0.000000 0.006586
vt 0.000517 0.004658
vt 0.001515 0.002929
vt 0.002926 0.001518
vt 0.004655 0.000520
vt 0.006583 0.000003
vt 0.008579 0.000003
vt 0.010507 0.000520
vt 0.012236 0.001518
vt 0.013647 0.002929
vt 0.014645 0.004658
vt 0.015162 0.006586
vt 0.015162 0.008582
vt 0.014645 0.010510
vt 0.013647 0.012239
vt 0.012236 0.013650
vt 0.010507 0.014648
vt 0.008579 0.015165
vt 0.006583 0.015165
vt 0.004655 0.014648
vn 0.9659 0.0000 -0.2588
vn 0.8660 0.0000 -0.5000
vn 0.7071 0.0000 -0.7071
vn 0.5000 0.0000 -0.8660
vn 0.2588 0.0000 -0.9659
vn 0.0000 0.0000 -1.0000
vn -0.2588 0.0000 -0.9659
vn -0.5000 0.0000 -0.8660
vn -0.7071 0.0000 -0.7071
vn -0.8660 0.0000 -0.5000
vn -0.9659 0.0000 -0.2588
vn -1.0000 -0.0000 -0.0000
vn -0.9659 -0.0000 0.2588
vn -0.8660 -0.0000 0.5000
vn -0.7071 -0.0000 0.7071
vn -0.5000 -0.0000 0.8660
vn -0.2588 -0.0000 0.9659
vn -0.0000 -0.0000 1.0000
vn 0.2588 -0.0000 0.9659
vn 0.5000 -0.0000 0.8660
vn 0.7071 -0.0000 0.7071
vn 0.8660 -0.0000 0.5000
vn 0.9659 -0.0000 0.2588
vn 1.0000 0.0000 -0.0000
vn 0.0000 -1.0000 0.0000
vn 0.0000 1.0000 0.0000
usemtl lambert1
s 1
f 293/437/293 294/438/294 318/439/294 317/440/293
f 294/438/294 295/441/295 319/442/295 318/439/294
f 295/441/295 296/443/296 320/444/296 319/442/295
f 296/443/296 297/445/297 321/446/297 320/444/296
f 297/445/297 298/447/298 322/448/298 321/446/297
f 298/447/298 299/449/299 323/450/299 322/448/298
f 299/449/299 300/451/300 324/452/300 323/450/299
f 300/451/300 301/453/301 325/454/301 324/452/300
f 301/453/301 302/455/302 326/456/302 325/454/301
f 302/455/302 303/457/303 327/458/303 326/456/302
f 303/457/303 304/459/304 328/460/304 327/458/303
f 304/459/304 305/461/305 329/462/305 328/460/304
f 305/461/305 306/463/306 330/464/306 329/462/305
f 306/463/306 307/465/307 331/466/307 330/464/306
f 307/465/307 308/467/308 332/468/308 331/466/307
f 308/467/308 309/469/309 333/470/309 332/468/308
f 309/469/309 310/471/310 334/472/310 333/470/309
f 310/471/310 311/473/311 335/474/311 334/472/310
f 311/473/311 312/475/312 336/476/312 335/474/311
f 312/475/312 313/477/313 337/478/313 336/476/312
f 313/477/313 314/479/314 338/480/314 337/478/313
f 314/479/314 315/481/315 339/482/315 338/480/314
f 315/481/315 316/483/316 340/484/316 339/482/315
f 316/483/316 293/485/293 317/486/293 340/484/316
f 294/487/317 293/488/317 341/489/317
f 295/490/317 294/487/317 341/489/317
f 296/491/317 295/490/317 341/489/317
f 297/492/317 296/491/317 341/489/317
f 298/493/317 297/492/317 341/489/317
f 299/494/317 298/493/317 341/489/317
f 300/495/317 299/494/317 341/489/317
f 301/496/317 300/495/317 341/489/317
f 302/497/317 301/496/317 341/489/317
f 303/498/317 302/497/317 341/489/317
f 304/499/317 303/498/317 341/489/317
f 305/500/317 304/499/317 341/489/317
f 306/501/317 305/500/317 341/489/317
f 307/502/317 306/501/317 341/489/317
f 308/503/317 307/502/317 341/489/317
f 309/504/317 308/503/317 341/489/317
f 310/505/317 309/504/317 341/489/317
f 311/506/317 310/505/317 341/489/317
f 312/507/317 311/506/317 341/489/317
f 313/508/317 312/507/317 341/489/317
f 314/509/317 313/508/317 341/489/317
f 315/510/317 314/509/317 341/489/317
f 316/511/317 315/510/317 341/489/317
f 293/488/317 316/511/317 341/489/317
f 317/512/318 318/513/318 342/514/318
f 318/513/318 319/515/318 342/514/318
f 319/515/318 320/516/318 342/514/318
f 320/516/318 321/517/318 342/514/318
f 321/517/318 322/518/318 342/514/318
f 322/518/318 323/519/318 342/514/318
f 323/519/318 324/520/318 342/514/318
f 324/520/318 325/521/318 342/514/318
f 325/521/318 326/522/318 342/514/318
f 326/522/318 327/523/318 342/514/318
f 327/523/318 328/524/318 342/514/318
f 328/524/318 329/525/318 342/514/318
f 329/525/318 330/526/318 342/514/318
f 330/526/318 331/527/318 342/514/318
f 331/527/318 332/528/318 342/514/318
f 332/528/318 333/529/318 342/514/318
f 333/529/318 334/530/318 342/514/318
f 334/530/318 335/531/318 342/514/318
f 335/531/318 336/532/318 342/514/318
f 336/532/318 337/533/318 342/514/318
f 337/533/318 338/534/318 342/514/318
f 338/534/318 339/535/318 342/514/318
f 339/535/318 340/536/318 342/514/318
f 340/536/318 317/512/318 342/514/318
o bottom_Mesh.003
v -0.420059 3.105291 0.112555
v -0.376614 3.105291 0.217440
v -0.307504 3.105291 0.307506
v -0.217438 3.105291 0.376616
v -0.112553 3.105291 0.420061
v 0.000001 3.105291 0.434879
v 0.112556 3.105291 0.420061
v 0.217441 3.105291 0.376616
v 0.307507 3.105291 0.307506
v 0.376617 3.105291 0.217440
v 0.420062 3.105291 0.112555
v 0.434880 3.105291 0.000001
v 0.420062 3.105291 -0.112554
v 0.376617 3.105291 -0.217439
v 0.307507 3.105291 -0.307505
v 0.217441 3.105291 -0.376615
v 0.112556 3.105291 -0.420060
v 0.000001 3.105291 -0.434878
v -0.112553 3.105291 -0.420060
v -0.217438 3.105291 -0.376615
v -0.307504 3.105291 -0.307505
v -0.376615 3.105291 -0.217439
v -0.420059 3.105291 -0.112554
v -0.434877 3.105291 0.000001
v 0.000001 3.105291 0.000001
v -0.373569 2.997936 0.100099
v -0.334933 2.997936 0.193375
v -0.273471 2.997936 0.273473
v -0.193373 2.997936 0.334935
v -0.100097 2.997936 0.373571
v 0.000001 2.997936 0.386749
v 0.100099 2.997936 0.373571
v 0.193376 2.997936 0.334935
v 0.273474 2.997936 0.273473
v 0.334936 2.997936 0.193375
v 0.373572 2.997936 0.100099
v 0.386750 2.997936 0.000001
v 0.373572 2.997936 -0.100097
v 0.334936 2.997936 -0.193374
v 0.273474 2.997936 -0.273472
v 0.193376 2.997936 -0.334934
v 0.100099 2.997936 -0.373570
v 0.000001 2.997936 -0.386748
v -0.100097 2.997936 -0.373570
v -0.193373 2.997936 -0.334934
v -0.273471 2.997936 -0.273472
v -0.334933 2.997936 -0.193374
v -0.373570 2.997936 -0.100097
v -0.386748 2.997936 0.000001
v -0.289553 2.956645 0.077586
v -0.259606 2.956645 0.149885
v -0.211967 2.956645 0.211969
v -0.149883 2.956645 0.259608
v -0.077584 2.956645 0.289555
v 0.000001 2.956645 0.299769
v 0.077587 2.956645 0.289555
v 0.149886 2.956645 0.259608
v 0.211970 2.956645 0.211969
v 0.259609 2.956645 0.149885
v 0.289556 2.956645 0.077586
v 0.299770 2.956645 0.000001
v 0.289556 2.956645 -0.077585
v 0.259609 2.956645 -0.149884
v 0.211970 2.956645 -0.211968
v 0.149886 2.956645 -0.259607
v 0.077587 2.956645 -0.289554
v 0.000001 2.956645 -0.299768
v -0.077584 2.956645 -0.289554
v -0.149883 2.956645 -0.259607
v -0.211967 2.956645 -0.211968
v -0.259606 2.956645 -0.149884
v -0.289553 2.956645 -0.077585
v -0.299767 2.956645 0.000001
v -0.407167 3.034302 0.109101
v -0.421530 3.034302 0.000001
v -0.407167 3.034302 -0.109100
v -0.365056 3.034302 -0.210765
v -0.298066 3.034302 -0.298067
v -0.210764 3.034302 -0.365056
v -0.109099 3.034302 -0.407168
v 0.000001 3.034302 -0.421531
v 0.109102 3.034302 -0.407168
v 0.210767 3.034302 -0.365056
v 0.298069 3.034302 -0.298067
v 0.365058 3.034302 -0.210765
v 0.407170 3.034302 -0.109100
v 0.421533 3.034302 0.000001
v 0.407170 3.034302 0.109101
v 0.365058 3.034302 0.210766
v 0.298069 3.034302 0.298068
v 0.210767 3.034302 0.365058
v 0.109102 3.034302 0.407169
v 0.000001 3.034302 0.421532
v -0.109099 3.034302 0.407169
v -0.210764 3.034302 0.365057
v -0.298066 3.034302 0.298068
v -0.365055 3.034302 0.210766
v -0.252810 2.946232 0.067741
v -0.226663 2.946232 0.130866
v 0.000001 2.946232 0.000001
v -0.185070 2.946232 0.185072
v -0.130864 2.946232 0.226665
v -0.067739 2.946232 0.252812
v 0.000001 2.946232 0.261731
v 0.067742 2.946232 0.252812
v 0.130866 2.946232 0.226665
v 0.185073 2.946232 0.185072
v 0.226666 2.946232 0.130866
v 0.252813 2.946232 0.067741
v 0.261731 2.946232 0.000001
v 0.252813 2.946232 -0.067740
v 0.226666 2.946232 -0.130864
v 0.185073 2.946232 -0.185071
v 0.130866 2.946232 -0.226664
v 0.067742 2.946232 -0.252811
v 0.000001 2.946232 -0.261730
v -0.067739 2.946232 -0.252811
v -0.130864 2.946232 -0.226664
v -0.185070 2.946232 -0.185071
v -0.226664 2.946232 -0.130864
v -0.252811 2.946232 -0.067740
v -0.261729 2.946232 0.000001
v -0.267978 2.957678 0.154719
v -0.298891 2.957678 0.080089
v -0.218803 2.957678 0.218805
v -0.154717 2.957678 0.267980
v -0.080087 2.957678 0.298893
v 0.000001 2.957678 0.309437
v 0.080089 2.957678 0.298893
v 0.154720 2.957678 0.267980
v 0.218806 2.957678 0.218805
v 0.267981 2.957678 0.154719
v 0.298894 2.957678 0.080089
v 0.309438 2.957678 0.000001
v 0.298894 2.957678 -0.080087
v 0.267981 2.957678 -0.154718
v 0.218806 2.957678 -0.218804
v 0.154720 2.957678 -0.267979
v 0.080089 2.957678 -0.298892
v 0.000001 2.957678 -0.309436
v -0.080087 2.957678 -0.298892
v -0.154717 2.957678 -0.267979
v -0.218803 2.957678 -0.218804
v -0.267978 2.957678 -0.154718
v -0.298891 2.957678 -0.080087
v -0.309435 2.957678 0.000001
vt 0.830959 0.210849
vt 0.837993 0.210849
vt 0.837993 0.235782
vt 0.830959 0.235782
vt 0.845027 0.210849
vt 0.845027 0.235782
vt 0.852062 0.210849
vt 0.852062 0.235782
vt 0.859096 0.210849
vt 0.859096 0.235782
vt 0.866130 0.210849
vt 0.866130 0.235782
vt 0.873164 0.210849
vt 0.873164 0.235782
vt 0.880199 0.210849
vt 0.880199 0.235782
vt 0.887233 0.210849
vt 0.887233 0.235782
vt 0.894267 0.210849
vt 0.894267 0.235782
vt 0.901301 0.210849
vt 0.901301 0.235782
vt 0.908336 0.210849
vt 0.908336 0.235782
vt 0.915370 0.210849
vt 0.915370 0.235782
vt 0.922404 0.210849
vt 0.922404 0.235782
vt 0.929439 0.210849
vt 0.929439 0.235782
vt 0.936473 0.210849
vt 0.936473 0.235782
vt 0.943507 0.210849
vt 0.943507 0.235782
vt 0.950541 0.210849
vt 0.950541 0.235782
vt 0.957576 0.210849
vt 0.957576 0.235782
vt 0.964610 0.210849
vt 0.964610 0.235782
vt 0.971644 0.210849
vt 0.971644 0.235782
vt 0.978679 0.210849
vt 0.978679 0.235782
vt 0.985713 0.210849
vt 0.985713 0.235782
vt 0.992747 0.210849
vt 0.992747 0.235782
vt 0.999781 0.210849
vt 0.999781 0.235782
vt 0.940281 0.697810
vt 0.922484 0.697810
vt 0.933902 0.631264
vt 0.957471 0.693204
vt 0.972883 0.684306
vt 0.985467 0.671721
vt 0.994366 0.656309
vt 0.998972 0.639119
vt 0.998972 0.621322
vt 0.994366 0.604132
vt 0.985467 0.588720
vt 0.972883 0.576136
vt 0.957471 0.567237
vt 0.940281 0.562631
vt 0.922484 0.562631
vt 0.905294 0.567237
vt 0.889882 0.576136
vt 0.877297 0.588720
vt 0.868399 0.604132
vt 0.863793 0.621322
vt 0.863793 0.639119
vt 0.868399 0.656309
vt 0.877297 0.671721
vt 0.889882 0.684306
vt 0.905294 0.693204
vt 0.956652 0.756689
vt 0.977562 0.777598
vt 0.883511 0.844820
vt 0.992347 0.803207
vt 1.000000 0.831769
vt 1.000000 0.861339
vt 0.992347 0.889902
vt 0.977562 0.915510
vt 0.956652 0.936419
vt 0.931044 0.951204
vt 0.902482 0.958857
vt 0.872911 0.958857
vt 0.844349 0.951204
vt 0.818741 0.936419
vt 0.797831 0.915510
vt 0.783046 0.889901
vt 0.775393 0.861339
vt 0.775393 0.831769
vt 0.783046 0.803207
vt 0.797832 0.777598
vt 0.818741 0.756689
vt 0.844349 0.741904
vt 0.872912 0.734251
vt 0.902482 0.734251
vt 0.931044 0.741904
vt 0.830959 0.080511
vt 0.837993 0.080511
vt 0.845027 0.080511
vt 0.852062 0.080511
vt 0.859096 0.080511
vt 0.866130 0.080511
vt 0.873164 0.080511
vt 0.880199 0.080511
vt 0.887233 0.080511
vt 0.894267 0.080511
vt 0.901301 0.080511
vt 0.908336 0.080511
vt 0.915370 0.080511
vt 0.922404 0.080511
vt 0.929439 0.080511
vt 0.936473 0.080511
vt 0.943507 0.080511
vt 0.950541 0.080511
vt 0.957576 0.080511
vt 0.964610 0.080511
vt 0.971644 0.080511
vt 0.978679 0.080511
vt 0.985713 0.080511
vt 0.992747 0.080511
vt 0.999781 0.080511
vt 0.830959 0.014153
vt 0.837993 0.014153
vt 0.837993 0.080511
vt 0.830959 0.080511
vt 0.845027 0.014153
vt 0.845027 0.080511
vt 0.852062 0.014153
vt 0.852062 0.080511
vt 0.859096 0.014153
vt 0.859096 0.080511
vt 0.866130 0.014153
vt 0.866130 0.080511
vt 0.873164 0.014153
vt 0.873164 0.080511
vt 0.880199 0.014153
vt 0.880199 0.080511
vt 0.887233 0.014153
vt 0.887233 0.080511
vt 0.894267 0.014153
vt 0.894267 0.080511
vt 0.901301 0.014153
vt 0.901301 0.080511
vt 0.908336 0.014153
vt 0.908336 0.080511
vt 0.915370 0.014153
vt 0.915370 0.080511
vt 0.922404 0.014153
vt 0.922404 0.080511
vt 0.929439 0.014153
vt 0.929439 0.080511
vt 0.936473 0.014153
vt 0.936473 0.080511
vt 0.943507 0.014153
vt 0.943507 0.080511
vt 0.950541 0.014153
vt 0.950541 0.080511
vt 0.957576 0.014153
vt 0.957576 0.080511
vt 0.964610 0.014153
vt 0.964610 0.080511
vt 0.971644 0.014153
vt 0.971644 0.080511
vt 0.978679 0.014153
vt 0.978679 0.080511
vt 0.985713 0.014153
vt 0.985713 0.080511
vt 0.992747 0.014153
vt 0.992747 0.080511
vt 0.999781 0.014153
vt 0.999781 0.080511
vt 0.999781 0.268021
vt 0.992747 0.268021
vt 0.985713 0.268021
vt 0.978679 0.268021
vt 0.971644 0.268021
vt 0.964610 0.268021
vt 0.957576 0.268021
vt 0.950541 0.268021
vt 0.943507 0.268021
vt 0.936473 0.268021
vt 0.929439 0.268021
vt 0.922404 0.268021
vt 0.915370 0.268021
vt 0.908336 0.268021
vt 0.901301 0.268021
vt 0.894267 0.268021
vt 0.887233 0.268021
vt 0.880199 0.268021
vt 0.873164 0.268021
vt 0.866130 0.268021
vt 0.859096 0.268021
vt 0.852062 0.268021
vt 0.845027 0.268021
vt 0.837993 0.268021
vt 0.830959 0.268021
vn -0.5401 -0.8291 0.1447
vn -0.4843 -0.8291 0.2796
vn -0.7967 -0.3920 0.4600
vn -0.8886 -0.3920 0.2381
vn -0.3954 -0.8291 0.3954
vn -0.6505 -0.3920 0.6505
vn -0.2796 -0.8291 0.4843
vn -0.4600 -0.3920 0.7967
vn -0.1447 -0.8291 0.5401
vn -0.2381 -0.3920 0.8886
vn 0.0000 -0.8291 0.5592
vn 0.0000 -0.3920 0.9200
vn 0.1447 -0.8291 0.5401
vn 0.2381 -0.3920 0.8886
vn 0.2796 -0.8291 0.4843
vn 0.4600 -0.3920 0.7967
vn 0.3954 -0.8291 0.3954
vn 0.6505 -0.3920 0.6505
vn 0.4843 -0.8291 0.2796
vn 0.7967 -0.3920 0.4600
vn 0.5401 -0.8291 0.1447
vn 0.8886 -0.3920 0.2381
vn 0.5592 -0.8291 0.0000
vn 0.9200 -0.3920 -0.0000
vn 0.5401 -0.8291 -0.1447
vn 0.8886 -0.3920 -0.2381
vn 0.4842 -0.8291 -0.2796
vn 0.7967 -0.3920 -0.4600
vn 0.3954 -0.8291 -0.3954
vn 0.6505 -0.3920 -0.6505
vn 0.2796 -0.8291 -0.4842
vn 0.4600 -0.3920 -0.7967
vn 0.1447 -0.8291 -0.5401
vn 0.2381 -0.3920 -0.8886
vn -0.0000 -0.8291 -0.5592
vn -0.0000 -0.3920 -0.9200
vn -0.1447 -0.8291 -0.5401
vn -0.2381 -0.3920 -0.8886
vn -0.2796 -0.8291 -0.4842
vn -0.4600 -0.3920 -0.7967
vn -0.3954 -0.8291 -0.3954
vn -0.6505 -0.3920 -0.6505
vn -0.4843 -0.8291 -0.2796
vn -0.7967 -0.3920 -0.4600
vn -0.5401 -0.8291 -0.1447
vn -0.8886 -0.3920 -0.2381
vn -0.5592 -0.8291 -0.0000
vn -0.9200 -0.3920 0.0000
vn 0.0000 -1.0000 -0.0000
vn 0.0000 1.0000 0.0000
vn -0.4142 -0.9034 0.1110
vn -0.3714 -0.9034 0.2144
vn -0.3032 -0.9034 0.3032
vn -0.2144 -0.9034 0.3714
vn -0.1110 -0.9034 0.4142
vn -0.0000 -0.9034 0.4288
vn 0.1110 -0.9034 0.4142
vn 0.2144 -0.9034 0.3714
vn 0.3032 -0.9034 0.3032
vn 0.3714 -0.9034 0.2144
vn 0.4142 -0.9034 0.1110
vn 0.4288 -0.9034 0.0000
vn 0.4142 -0.9034 -0.1110
vn 0.3714 -0.9034 -0.2144
vn 0.3032 -0.9034 -0.3032
vn 0.2144 -0.9034 -0.3714
vn 0.1110 -0.9034 -0.4142
vn 0.0000 -0.9034 -0.4288
vn -0.1110 -0.9034 -0.4142
vn -0.2144 -0.9034 -0.3714
vn -0.3032 -0.9034 -0.3032
vn -0.3714 -0.9034 -0.2144
vn -0.4142 -0.9034 -0.1110
vn -0.4288 -0.9034 0.0000
vn -0.2254 -0.9724 0.0604
vn -0.2020 -0.9724 0.1167
vn -0.1650 -0.9724 0.1650
vn -0.1167 -0.9724 0.2021
vn -0.0604 -0.9724 0.2254
vn -0.0000 -0.9724 0.2333
vn 0.0604 -0.9724 0.2254
vn 0.1167 -0.9724 0.2020
vn 0.1650 -0.9724 0.1650
vn 0.2020 -0.9724 0.1167
vn 0.2254 -0.9724 0.0604
vn 0.2333 -0.9724 -0.0000
vn 0.2254 -0.9724 -0.0604
vn 0.2020 -0.9724 -0.1167
vn 0.1650 -0.9724 -0.1650
vn 0.1167 -0.9724 -0.2020
vn 0.0604 -0.9724 -0.2254
vn 0.0000 -0.9724 -0.2333
vn -0.0604 -0.9724 -0.2254
vn -0.1167 -0.9724 -0.2020
vn -0.1650 -0.9724 -0.1650
vn -0.2020 -0.9724 -0.1167
vn -0.2254 -0.9724 -0.0604
vn -0.2333 -0.9724 -0.0000
vn -0.9493 -0.1848 0.2544
vn -0.9828 -0.1848 0.0000
vn -0.9493 -0.1848 -0.2544
vn -0.8511 -0.1848 -0.4914
vn -0.6949 -0.1848 -0.6949
vn -0.4914 -0.1848 -0.8511
vn -0.2544 -0.1848 -0.9493
vn 0.0000 -0.1848 -0.9828
vn 0.2544 -0.1848 -0.9493
vn 0.4914 -0.1848 -0.8511
vn 0.6949 -0.1848 -0.6949
vn 0.8511 -0.1848 -0.4914
vn 0.9493 -0.1848 -0.2544
vn 0.9828 -0.1848 0.0000
vn 0.9493 -0.1848 0.2544
vn 0.8511 -0.1848 0.4914
vn 0.6949 -0.1848 0.6949
vn 0.4914 -0.1848 0.8511
vn 0.2544 -0.1848 0.9493
vn 0.0000 -0.1848 0.9828
vn -0.2544 -0.1848 0.9493
vn -0.4914 -0.1848 0.8511
vn -0.6949 -0.1848 0.6949
vn -0.8511 -0.1848 0.4914
vn 0.0990 0.9942 -0.0410
vn 0.0850 0.9942 -0.0652
vn 0.0652 0.9942 -0.0850
vn 0.0410 0.9942 -0.0990
vn 0.0140 0.9942 -0.1062
vn -0.0140 0.9942 -0.1062
vn -0.0410 0.9942 -0.0990
vn -0.0652 0.9942 -0.0850
vn -0.0850 0.9942 -0.0652
vn -0.0990 0.9942 -0.0410
vn -0.1062 0.9942 -0.0140
vn -0.1062 0.9942 0.0140
vn -0.0990 0.9942 0.0410
vn -0.0850 0.9942 0.0652
vn -0.0652 0.9942 0.0850
vn -0.0410 0.9942 0.0990
vn -0.0140 0.9943 0.1062
vn 0.0140 0.9942 0.1062
vn 0.0410 0.9942 0.0990
vn 0.0652 0.9942 0.0850
vn 0.0850 0.9942 0.0652
vn 0.0990 0.9942 0.0410
vn 0.1062 0.9942 0.0140
vn 0.1062 0.9942 -0.0140
usemtl lambert1
s 1
f 368/537/319 369/538/320 439/539/321 416/540/322
f 369/538/320 370/541/323 438/542/324 439/539/321
f 370/541/323 371/543/325 437/544/326 438/542/324
f 371/543/325 372/545/327 436/546/328 437/544/326
f 372/545/327 373/547/329 435/548/330 436/546/328
f 373/547/329 374/549/331 434/550/332 435/548/330
f 374/549/331 375/551/333 433/552/334 434/550/332
f 375/551/333 376/553/335 432/554/336 433/552/334
f 376/553/335 377/555/337 431/556/338 432/554/336
f 377/555/337 378/557/339 430/558/340 431/556/338
f 378/557/339 379/559/341 429/560/342 430/558/340
f 379/559/341 380/561/343 428/562/344 429/560/342
f 380/561/343 381/563/345 427/564/346 428/562/344
f 381/563/345 382/565/347 426/566/348 427/564/346
f 382/565/347 383/567/349 425/568/350 426/566/348
f 383/567/349 384/569/351 424/570/352 425/568/350
f 384/569/351 385/571/353 423/572/354 424/570/352
f 385/571/353 386/573/355 422/574/356 423/572/354
f 386/573/355 387/575/357 421/576/358 422/574/356
f 387/575/357 388/577/359 420/578/360 421/576/358
f 388/577/359 389/579/361 419/580/362 420/578/360
f 389/579/361 390/581/363 418/582/364 419/580/362
f 390/581/363 391/583/365 417/584/366 418/582/364
f 391/583/365 368/585/319 416/586/322 417/584/366
f 441/587/367 440/588/367 442/589/367
f 443/590/367 441/587/367 442/589/367
f 444/591/367 443/590/367 442/589/367
f 445/592/367 444/591/367 442/589/367
f 446/593/367 445/592/367 442/589/367
f 447/594/367 446/593/367 442/589/367
f 448/595/367 447/594/367 442/589/367
f 449/596/367 448/595/367 442/589/367
f 450/597/367 449/596/367 442/589/367
f 451/598/367 450/597/367 442/589/367
f 452/599/367 451/598/367 442/589/367
f 453/600/367 452/599/367 442/589/367
f 454/601/367 453/600/367 442/589/367
f 455/602/367 454/601/367 442/589/367
f 456/603/367 455/602/367 442/589/367
f 457/604/367 456/603/367 442/589/367
f 458/605/367 457/604/367 442/589/367
f 459/606/367 458/605/367 442/589/367
f 460/607/367 459/606/367 442/589/367
f 461/608/367 460/607/367 442/589/367
f 462/609/367 461/608/367 442/589/367
f 463/610/367 462/609/367 442/589/367
f 464/611/367 463/610/367 442/589/367
f 440/588/367 464/611/367 442/589/367
f 343/612/368 344/613/368 367/614/368
f 344/613/368 345/615/368 367/614/368
f 345/615/368 346/616/368 367/614/368
f 346/616/368 347/617/368 367/614/368
f 347/617/368 348/618/368 367/614/368
f 348/618/368 349/619/368 367/614/368
f 349/619/368 350/620/368 367/614/368
f 350/620/368 351/621/368 367/614/368
f 351/621/368 352/622/368 367/614/368
f 352/622/368 353/623/368 367/614/368
f 353/623/368 354/624/368 367/614/368
f 354/624/368 355/625/368 367/614/368
f 355/625/368 356/626/368 367/614/368
f 356/626/368 357/627/368 367/614/368
f 357/627/368 358/628/368 367/614/368
f 358/628/368 359/629/368 367/614/368
f 359/629/368 360/630/368 367/614/368
f 360/630/368 361/631/368 367/614/368
f 361/631/368 362/632/368 367/614/368
f 362/632/368 363/633/368 367/614/368
f 363/633/368 364/634/368 367/614/368
f 364/634/368 365/635/368 367/614/368
f 365/635/368 366/636/368 367/614/368
f 366/636/368 343/612/368 367/614/368
f 392/637/369 393/638/370 369/538/320 368/537/319
f 393/638/370 394/639/371 370/541/323 369/538/320
f 394/639/371 395/640/372 371/543/325 370/541/323
f 395/640/372 396/641/373 372/545/327 371/543/325
f 396/641/373 397/642/374 373/547/329 372/545/327
f 397/642/374 398/643/375 374/549/331 373/547/329
f 398/643/375 399/644/376 375/551/333 374/549/331
f 399/644/376 400/645/377 376/553/335 375/551/333
f 400/645/377 401/646/378 377/555/337 376/553/335
f 401/646/378 402/647/379 378/557/339 377/555/337
f 402/647/379 403/648/380 379/559/341 378/557/339
f 403/648/380 404/649/381 380/561/343 379/559/341
f 404/649/381 405/650/382 381/563/345 380/561/343
f 405/650/382 406/651/383 382/565/347 381/563/345
f 406/651/383 407/652/384 383/567/349 382/565/347
f 407/652/384 408/653/385 384/569/351 383/567/349
f 408/653/385 409/654/386 385/571/353 384/569/351
f 409/654/386 410/655/387 386/573/355 385/571/353
f 410/655/387 411/656/388 387/575/357 386/573/355
f 411/656/388 412/657/389 388/577/359 387/575/357
f 412/657/389 413/658/390 389/579/361 388/577/359
f 413/658/390 414/659/391 390/581/363 389/579/361
f 414/659/391 415/660/392 391/583/365 390/581/363
f 415/660/392 392/661/369 368/585/319 391/583/365
f 440/662/393 441/663/394 465/664/394 466/665/393
f 441/663/394 443/666/395 467/667/395 465/664/394
f 443/666/395 444/668/396 468/669/396 467/667/395
f 444/668/396 445/670/397 469/671/397 468/669/396
f 445/670/397 446/672/398 470/673/398 469/671/397
f 446/672/398 447/674/399 471/675/399 470/673/398
f 447/674/399 448/676/400 472/677/400 471/675/399
f 448/676/400 449/678/401 473/679/401 472/677/400
f 449/678/401 450/680/402 474/681/402 473/679/401
f 450/680/402 451/682/403 475/683/403 474/681/402
f 451/682/403 452/684/404 476/685/404 475/683/403
f 452/684/404 453/686/405 477/687/405 476/685/404
f 453/686/405 454/688/406 478/689/406 477/687/405
f 454/688/406 455/690/407 479/691/407 478/689/406
f 455/690/407 456/692/408 480/693/408 479/691/407
f 456/692/408 457/694/409 481/695/409 480/693/408
f 457/694/409 458/696/410 482/697/410 481/695/409
f 458/696/410 459/698/411 483/699/411 482/697/410
f 459/698/411 460/700/412 484/701/412 483/699/411
f 460/700/412 461/702/413 485/703/413 484/701/412
f 461/702/413 462/704/414 486/705/414 485/703/413
f 462/704/414 463/706/415 487/707/415 486/705/414
f 463/706/415 464/708/416 488/709/416 487/707/415
f 464/708/416 440/710/393 466/711/393 488/709/416
f 417/584/366 416/586/322 343/712/417 366/713/418
f 418/582/364 417/584/366 366/713/418 365/714/419
f 419/580/362 418/582/364 365/714/419 364/715/420
f 420/578/360 419/580/362 364/715/420 363/716/421
f 421/576/358 420/578/360 363/716/421 362/717/422
f 422/574/356 421/576/358 362/717/422 361/718/423
f 423/572/354 422/574/356 361/718/423 360/719/424
f 424/570/352 423/572/354 360/719/424 359/720/425
f 425/568/350 424/570/352 359/720/425 358/721/426
f 426/566/348 425/568/350 358/721/426 357/722/427
f 427/564/346 426/566/348 357/722/427 356/723/428
f 428/562/344 427/564/346 356/723/428 355/724/429
f 429/560/342 428/562/344 355/724/429 354/725/430
f 430/558/340 429/560/342 354/725/430 353/726/431
f 431/556/338 430/558/340 353/726/431 352/727/432
f 432/554/336 431/556/338 352/727/432 351/728/433
f 433/552/334 432/554/336 351/728/433 350/729/434
f 434/550/332 433/552/334 350/729/434 349/730/435
f 435/548/330 434/550/332 349/730/435 348/731/436
f 436/546/328 435/548/330 348/731/436 347/732/437
f 437/544/326 436/546/328 347/732/437 346/733/438
f 438/542/324 437/544/326 346/733/438 345/734/439
f 439/539/321 438/542/324 345/734/439 344/735/440
f 416/540/322 439/539/321 344/735/440 343/736/417
f 393/638/441 392/637/441 466/665/441 465/664/441
f 394/639/442 393/638/442 465/664/442 467/667/442
f 395/640/443 394/639/443 467/667/443 468/669/443
f 396/641/444 395/640/444 468/669/444 469/671/444
f 397/642/445 396/641/445 469/671/445 470/673/445
f 398/643/446 397/642/446 470/673/446 471/675/446
f 399/644/447 398/643/447 471/675/447 472/677/447
f 400/645/448 399/644/448 472/677/448 473/679/448
f 401/646/449 400/645/449 473/679/449 474/681/449
f 402/647/450 401/646/450 474/681/450 475/683/450
f 403/648/451 402/647/451 475/683/451 476/685/451
f 404/649/452 403/648/452 476/685/452 477/687/452
f 405/650/453 404/649/453 477/687/453 478/689/453
f 406/651/454 405/650/454 478/689/454 479/691/454
f 407/652/455 406/651/455 479/691/455 480/693/455
f 408/653/456 407/652/456 480/693/456 481/695/456
f 409/654/457 408/653/457 481/695/457 482/697/457
f 410/655/458 409/654/458 482/697/458 483/699/458
f 411/656/459 410/655/459 483/699/459 484/701/459
f 412/657/460 411/656/460 484/701/460 485/703/460
f 413/658/461 412/657/461 485/703/461 486/705/461
f 414/659/462 413/658/462 486/705/462 487/707/462
f 415/660/463 414/659/463 487/707/463 488/709/463
f 392/661/464 415/660/464 488/709/464 466/711/464
o blades_Mesh.004
v 3.773032 3.099156 0.352176
v 3.896301 3.099156 -0.002618
v 3.773032 3.099156 -0.357411
v 3.773032 3.152535 0.352176
v 3.896301 3.152535 -0.002618
v 3.773032 3.152535 -0.357411
v 3.773032 3.205914 0.352176
v 3.896301 3.205914 -0.002618
v 3.773032 3.205914 -0.357411
v 2.011669 3.205914 0.352176
v 2.011669 3.205914 -0.002618
v 2.011669 3.205914 -0.357411
v 0.250306 3.205914 0.352176
v 0.127037 3.205914 -0.002618
v 0.250306 3.205914 -0.357411
v 0.250306 3.152535 0.352176
v 0.127037 3.152535 -0.002618
v 0.250306 3.152535 -0.357411
v 0.250306 3.099156 0.352176
v 0.127037 3.099156 -0.002618
v 0.250306 3.099156 -0.357411
v 2.011669 3.099156 0.352176
v 2.011669 3.099156 -0.002618
v 2.011669 3.099156 -0.357411
v 2.011669 3.152535 -0.357411
v 2.011669 3.152535 0.352176
v -2.133250 3.099155 3.036597
v -1.887624 3.099155 3.320747
v -1.518729 3.099155 3.391391
v -2.133250 3.152534 3.036597
v -1.887624 3.152534 3.320747
v -1.518729 3.152534 3.391391
v -2.133250 3.205913 3.036597
v -1.887624 3.205913 3.320747
v -1.518729 3.205913 3.391391
v -1.252568 3.205913 1.511211
v -0.945308 3.205913 1.688608
v -0.638048 3.205913 1.866005
v -0.371886 3.205914 -0.014174
v -0.002992 3.205914 0.056469
v 0.242634 3.205914 0.340620
v -0.371886 3.152535 -0.014174
v -0.002992 3.152535 0.056469
v 0.242634 3.152535 0.340620
v -0.371886 3.099156 -0.014174
v -0.002992 3.099156 0.056469
v 0.242634 3.099156 0.340620
v -1.252568 3.099155 1.511211
v -0.945308 3.099155 1.688608
v -0.638048 3.099155 1.866005
v -0.638048 3.152534 1.866005
v -1.252568 3.152534 1.511211
v -1.544676 3.099156 -3.417466
v -1.913571 3.099156 -3.346823
v -2.159197 3.099156 -3.062673
v -1.544676 3.152535 -3.417466
v -1.913571 3.152535 -3.346823
v -2.159197 3.152535 -3.062673
v -1.544676 3.205914 -3.417466
v -1.913571 3.205914 -3.346823
v -2.159197 3.205914 -3.062673
v -0.663994 3.205914 -1.892081
v -0.971255 3.205914 -1.714685
v -1.278515 3.205914 -1.537288
v 0.216687 3.205914 -0.366696
v -0.028939 3.205914 -0.082546
v -0.397833 3.205914 -0.011902
v 0.216687 3.152535 -0.366696
v -0.028939 3.152535 -0.082546
v -0.397833 3.152535 -0.011902
v 0.216687 3.099156 -0.366696
v -0.028939 3.099156 -0.082546
v -0.397833 3.099156 -0.011902
v -0.663994 3.099156 -1.892081
v -0.971255 3.099156 -1.714685
v -1.278515 3.099156 -1.537288
v -1.278515 3.152535 -1.537288
v -0.663994 3.152535 -1.892081
vt 0.718565 0.011234
vt 0.774871 0.000003
vt 0.774905 0.008057
vt 0.719530 0.019466
vt 0.831313 0.011059
vt 0.830389 0.019366
vt 0.774952 0.015850
vt 0.720591 0.027952
vt 0.829304 0.027931
vt 0.774955 0.300275
vt 0.720477 0.300280
vt 0.829433 0.300270
vt 0.774958 0.584701
vt 0.720605 0.572619
vt 0.829319 0.572598
vt 0.775005 0.592493
vt 0.719521 0.581184
vt 0.830380 0.581084
vt 0.775039 0.600547
vt 0.718597 0.589492
vt 0.831345 0.589316
vt 0.701998 0.557570
vt 0.647742 0.576424
vt 0.647725 0.288212
vt 0.701982 0.288209
vt 0.593483 0.557576
vt 0.593467 0.288215
vt 0.647708 0.000000
vt 0.701966 0.018848
vt 0.593451 0.018854
vt 0.585320 0.557577
vt 0.585304 0.288216
vt 0.585288 0.018855
vt 0.577157 0.557577
vt 0.577141 0.288216
vt 0.577125 0.018855
vt 0.710146 0.288208
vt 0.710161 0.557569
vt 0.710130 0.018847
vt 0.718309 0.288208
vt 0.718325 0.557569
vt 0.718293 0.018847
vt 0.463479 0.293592
vt 0.519786 0.282366
vt 0.519820 0.290420
vt 0.464443 0.301825
vt 0.576227 0.293425
vt 0.575303 0.301733
vt 0.519866 0.298212
vt 0.465504 0.310310
vt 0.574218 0.310298
vt 0.519848 0.582638
vt 0.465369 0.582639
vt 0.574326 0.582637
vt 0.519829 0.867063
vt 0.465477 0.854977
vt 0.574191 0.854965
vt 0.519875 0.874855
vt 0.464392 0.863542
vt 0.575251 0.863450
vt 0.519909 0.882910
vt 0.463468 0.871850
vt 0.576216 0.871683
vt 0.557569 0.157522
vt 0.576424 0.211779
vt 0.288212 0.211801
vt 0.288208 0.157543
vt 0.557577 0.266038
vt 0.288216 0.266059
vt 0.000000 0.211824
vt 0.018847 0.157565
vt 0.018855 0.266080
vt 0.557578 0.274201
vt 0.288217 0.274222
vt 0.018856 0.274243
vt 0.557579 0.282364
vt 0.288218 0.282385
vt 0.018857 0.282406
vt 0.288207 0.149380
vt 0.557568 0.149359
vt 0.018846 0.149401
vt 0.288207 0.141217
vt 0.557568 0.141196
vt 0.018846 0.141238
vt 0.349818 0.293601
vt 0.406124 0.282374
vt 0.406158 0.290429
vt 0.350782 0.301834
vt 0.462566 0.293434
vt 0.461641 0.301741
vt 0.406204 0.298221
vt 0.351843 0.310319
vt 0.460556 0.310306
vt 0.406188 0.582646
vt 0.351710 0.582648
vt 0.460667 0.582645
vt 0.406172 0.867072
vt 0.351820 0.854986
vt 0.460533 0.854973
vt 0.406218 0.874864
vt 0.350735 0.863552
vt 0.461595 0.863459
vt 0.406252 0.882919
vt 0.349811 0.871859
vt 0.462559 0.871691
vt 0.018858 0.124912
vt 0.000000 0.070657
vt 0.288212 0.070621
vt 0.288219 0.124878
vt 0.018844 0.016397
vt 0.288205 0.016363
vt 0.576424 0.070585
vt 0.557580 0.124845
vt 0.557566 0.016329
vt 0.018843 0.008234
vt 0.288204 0.008200
vt 0.557565 0.008166
vt 0.018842 0.000070
vt 0.288203 0.000037
vt 0.557564 0.000003
vt 0.288220 0.133041
vt 0.018859 0.133075
vt 0.557581 0.133008
vt 0.288221 0.141205
vt 0.018860 0.141238
vt 0.557582 0.141171
vn 0.9446 0.0000 0.3282
vn 1.0000 -0.0000 -0.0000
vn 0.9446 -0.0000 -0.3282
vn 0.0000 1.0000 -0.0000
vn -0.9446 0.0000 0.3282
vn -1.0000 0.0000 0.0000
vn -0.9446 0.0000 -0.3282
vn 0.0000 -1.0000 0.0000
vn 0.0000 0.0000 -1.0000
vn -0.0000 0.0000 1.0000
vn -0.7565 0.0000 0.6540
vn -0.5000 0.0000 0.8660
vn -0.1881 0.0000 0.9822
vn 0.1881 0.0000 -0.9822
vn 0.5000 0.0000 -0.8660
vn 0.7565 0.0000 -0.6540
vn 0.8660 0.0000 0.5000
vn -0.8660 0.0000 -0.5000
vn -0.1881 0.0000 -0.9822
vn -0.5000 0.0000 -0.8660
vn -0.7565 0.0000 -0.6540
vn 0.7565 -0.0000 0.6540
vn 0.5000 -0.0000 0.8660
vn 0.1881 -0.0000 0.9822
vn -0.8660 0.0000 0.5000
vn 0.8660 0.0000 -0.5000
usemtl fan
s 1
f 489/737/465 490/738/466 493/739/466 492/740/465
f 490/738/466 491/741/467 494/742/467 493/739/466
f 492/740/465 493/739/466 496/743/466 495/744/465
f 493/739/466 494/742/467 497/745/467 496/743/466
f 495/744/468 496/743/468 499/746/468 498/747/468
f 496/743/468 497/745/468 500/748/468 499/746/468
f 498/747/468 499/746/468 502/749/468 501/750/468
f 499/746/468 500/748/468 503/751/468 502/749/468
f 501/750/469 502/749/470 505/752/470 504/753/469
f 502/749/470 503/751/471 506/754/471 505/752/470
f 504/753/469 505/752/470 508/755/470 507/756/469
f 505/752/470 506/754/471 509/757/471 508/755/470
f 507/758/472 508/759/472 511/760/472 510/761/472
f 508/759/472 509/762/472 512/763/472 511/760/472
f 510/761/472 511/760/472 490/764/472 489/765/472
f 511/760/472 512/763/472 491/766/472 490/764/472
f 512/763/473 509/762/473 506/767/473 513/768/473
f 491/766/473 512/763/473 513/768/473 494/769/473
f 513/768/473 506/767/473 503/770/473 500/771/473
f 494/769/473 513/768/473 500/771/473 497/772/473
f 507/758/474 510/761/474 514/773/474 504/774/474
f 510/761/474 489/765/474 492/775/474 514/773/474
f 504/774/474 514/773/474 498/776/474 501/777/474
f 514/773/474 492/775/474 495/778/474 498/776/474
f 515/779/475 516/780/476 519/781/476 518/782/475
f 516/780/476 517/783/477 520/784/477 519/781/476
f 518/782/475 519/781/476 522/785/476 521/786/475
f 519/781/476 520/784/477 523/787/477 522/785/476
f 521/786/468 522/785/468 525/788/468 524/789/468
f 522/785/468 523/787/468 526/790/468 525/788/468
f 524/789/468 525/788/468 528/791/468 527/792/468
f 525/788/468 526/790/468 529/793/468 528/791/468
f 527/792/478 528/791/479 531/794/479 530/795/478
f 528/791/479 529/793/480 532/796/480 531/794/479
f 530/795/478 531/794/479 534/797/479 533/798/478
f 531/794/479 532/796/480 535/799/480 534/797/479
f 533/800/472 534/801/472 537/802/472 536/803/472
f 534/801/472 535/804/472 538/805/472 537/802/472
f 536/803/472 537/802/472 516/806/472 515/807/472
f 537/802/472 538/805/472 517/808/472 516/806/472
f 538/805/481 535/804/481 532/809/481 539/810/481
f 517/808/481 538/805/481 539/810/481 520/811/481
f 539/810/481 532/809/481 529/812/481 526/813/481
f 520/811/481 539/810/481 526/813/481 523/814/481
f 533/800/482 536/803/482 540/815/482 530/816/482
f 536/803/482 515/807/482 518/817/482 540/815/482
f 530/816/482 540/815/482 524/818/482 527/819/482
f 540/815/482 518/817/482 521/820/482 524/818/482
f 541/821/483 542/822/484 545/823/484 544/824/483
f 542/822/484 543/825/485 546/826/485 545/823/484
f 544/824/483 545/823/484 548/827/484 547/828/483
f 545/823/484 546/826/485 549/829/485 548/827/484
f 547/828/468 548/827/468 551/830/468 550/831/468
f 548/827/468 549/829/468 552/832/468 551/830/468
f 550/831/468 551/830/468 554/833/468 553/834/468
f 551/830/468 552/832/468 555/835/468 554/833/468
f 553/834/486 554/833/487 557/836/487 556/837/486
f 554/833/487 555/835/488 558/838/488 557/836/487
f 556/837/486 557/836/487 560/839/487 559/840/486
f 557/836/487 558/838/488 561/841/488 560/839/487
f 559/842/472 560/843/472 563/844/472 562/845/472
f 560/843/472 561/846/472 564/847/472 563/844/472
f 562/845/472 563/844/472 542/848/472 541/849/472
f 563/844/472 564/847/472 543/850/472 542/848/472
f 564/847/489 561/846/489 558/851/489 565/852/489
f 543/850/489 564/847/489 565/852/489 546/853/489
f 565/852/489 558/851/489 555/854/489 552/855/489
f 546/853/489 565/852/489 552/855/489 549/856/489
f 559/842/490 562/845/490 566/857/490 556/858/490
f 562/845/490 541/849/490 544/859/490 566/857/490
f 556/858/490 566/857/490 550/860/490 553/861/490
f 566/857/490 544/859/490 547/862/490 550/860/490
